<?xml version="1.0" encoding="UTF-8"?><svg id="Layer_2" xmlns="http://www.w3.org/2000/svg" viewBox="0 0 1592.69 1592.69"><g id="_图层_1"><path d="m477.37,1038.04c-.07,1.09-.68,2.13.84,2.87.73-1.28.51-2.12-.84-2.87Z"/><path d="m645.1,763.94c.36.67.35,1.57.77,2.19,1.5,2.2,3.23,4.25,4.63,6.51,1.08,1.75,2.7,3.06,3.67,4.86.52.96.77,2.15,1.49,2.89,2.45,2.48,4.84,4.98,6.54,8.07.29.53.81.96,1.31,1.33,2.37,1.77,4.77,3.5,7.15,5.26.78.58,1.52,1.21,2.18,1.74,2.14,1.24,4.26,2.47,6.63,3.85.44-.33.92-.71,1.44-1.06,3.02-2.03,5.12-4.49,4.71-8.49-.23-2.22-.04-4.49-.04-6.36-.61-1.2-1.33-2.03-1.44-2.94-.4-3.13-1.87-5.71-3.62-8.24-1.76-2.55-3.51-5.13-5.03-7.83-1.5-2.65-3.77-4.51-5.89-6.55-1.44-1.39-2.96-2.72-4.21-4.26-1.33-1.64-3.44-2.13-4.83-3.78-1.45-1.72-4.03-1.91-5.96-3.17-.97-.63-1.54-1.67-2.4-2.06-2.98-1.34-5.57-3.37-8.52-4.67-1.21-.53-2.4-1.22-3.56-1.6-2.66-.87-4.76-3.09-7.74-3.09-.47,0-1.06-.08-1.4-.36-2.06-1.69-4.48-1.94-6.96-1.91-.74-.51-1.45-1-2.13-1.46h-4.46c-1.12-.54-2.13-1.02-3.21-1.53-3.92.25-7.77-.46-11.65-1.29-3.86-.83-7.95.54-11.73-.86-1.03.24-2.25.94-2.88.59-1.89-1.04-3.82-.31-5.7-.53-2.47-.28-4.99-.07-7.48-.13-2.53-.07-5.16-.03-7.56.29-2.73.36-5.43.4-8.13.43-2.87.03-5.66.21-8.4,1.13-.8.27-1.78.58-2.52.35-2.29-.71-4.04.16-5.61,1.56-1.62,0-3.11-.02-4.61,0-1.62.03-3.29-.16-4.84.2-3.94.92-7.8,2.15-11.72,3.14-1.12.28-2.34.17-3.73.25-.5.22-1.24.65-2.05.91-3.4,1.07-6.85,1.97-10.2,3.16-1.49.53-2.78.71-4.3.19-1.85-.63-1.89-.51-3.98,1.41,3.27-.69,6.56-.27,9.92-.89,3.26-.6,6.74.04,10.39.14.13-.14.53-.57.98-1.04,3.13,0,6.26.05,9.38-.02,1.32-.03,2.72-.67,3.92-.38,3.25.79,6.37.48,9.53-.45,1.04.46,2.06.91,3.09,1.37,3.23-.83,17.33-.69,20.32.2,2.92-.98,8.71.02,11.95,2.09,1.36-1.78,3.34-1.31,5.16-1.29,2.81.03,5.31,1.08,7.67,2.52,1.06-1.73,2.55-1.09,3.93-.66,4.45,1.4,9.06,1.54,13.65,1.99,1.36.79,2.76,1.61,4.15,2.42q1.9-1.38,4.88.52h3.01c3.52,2.86,8.6,2.16,11.57,5.74,1.07.19,2.21.23,3.22.62,1.13.44,2.11,1.26,3.21,1.78,2.27,1.09,6.92,5.13,8.05,7.2Z"/><path d="m612.05,1103.68c1.01-1.79,2.02-3.57,3.03-5.36-.31-.15-.63-.3-.94-.45-.71,1.92-2.75,3.2-2.08,5.81Z"/><path d="m492.55,743.06h1.52v-.35h-1.52v.35Z"/><path d="m693.04,1018.87c.15.56.3,1.12.47,1.73.48-.23.68-.33,1.1-.53-.39-.51-.75-.97-1.11-1.43-.15.08-.31.15-.46.23Z"/><path d="m567.46,1098.56c.14-.73.28-1.46.43-2.2-.9.47-1.08,1.21-.43,2.2Z"/><path d="m690.07,1011.65c.5,1,1,2,1.5,3,.05-1.27.01-2.5-1.5-3Z"/><path d="m697.58,1022.53c-.74-.63-1.32-1.13-2.03-1.74-.52,2.31-.16,4.13.93,5.9.93,1.51,1.64,3.15,2.42,4.67,1.04-3.09-2.44-5.66-1.32-8.83Z"/><path d="m643.81,785.88c-.2,1.55.56,1.58,1.28,1.64-.06,1.06.42,1.58,1.5,1.49-.5-.5-1-1-1.49-1.5-.35-.44-.69-.87-1.29-1.63Z"/><path d="m487.38,744.19c0,.15.02.3.02.46h2.83c0-.19-.02-.39-.02-.58-.94.04-1.89.08-2.83.13Z"/><path d="m544.48,1062.96c.18,2.34,0,4.41.57,6.24.55,1.74-.42,4.29,2.26,5.35,0-1.58.4-3.13-.08-4.31-1.12-2.74-1.14-5.53-1.09-8.62-.68-1.06-1.46-2.28-2.25-3.49-.22,1.19-.45,2.38-.77,4.08.37.2,1,.56,1.35.75Z"/><path d="m833.76,1108.21c.28-1.14.24-2.36-1.28-2.85-.06,1.28,0,2.5,1.28,2.85Z"/><path d="m836.06,1109.48c-.8-.45-1.43-.8-2.3-1.27.65,1.64,1.33,3.02,2.3,5v-3.73Z"/><path d="m692.98,1015.66c-.53-.38-.97-.69-1.41-1,.11.69-.11,1.73,1.41,1Z"/><path d="m723.74,1180.49c2.01.61,3.68.79,4.98,1.58,2.42,1.47,4.89,1.37,8.35,1.02-4.73-1.43-8.48-3.23-13.32-2.59Z"/><path d="m794.6,715.31c2.49-1.01,3.02-3.09,3.45-6.23-1.57,2.29-2.68,3.88-3.74,5.51-.07.11.16.42.29.72Z"/><path d="m439.11,1142.41c.03.51.07,1.02.1,1.53.15,0,.31-.02.46-.03-.04-.51-.07-1.02-.11-1.53-.15,0-.3.02-.46.03Z"/><path d="m0,0v1592.69h1592.69V0H0Zm1234.36,437.94c5.68-2.02,10.76-5.57,16.82-6.57.56-.09,1.06-.56,1.6-.85,1.38-.73,2.76-1.46,4.52-2.39.06,1.11.1,1.68.11,1.95-3.58,3.16-6.74,6.35-10.3,8.99-3.66,2.71-6.24,6.52-10.06,9.07-1.87,1.25-3.14,3.38-4.75,5.05-.92.96-1.68,2.11-3.24,2.37-.75.12-1.43.92-2.04,1.51-2.59,2.54-5.1,5.15-7.71,7.66-1.43,1.37-3.06,2.51-4.5,3.86-1.07,1.01-1.99,2.18-2.76,3.54-4.38,2.19-8.81,4.3-13.12,6.63-1.38.75-2.43,2.09-3.21,2.8-.62,4.44-1.16,8.33-1.71,12.27.87.78,1.84,1.66,3.13,2.81-2.11,1.14-3.86,2.08-5.49,2.96-.09,1.41-.15,2.4-.23,3.63-.49.53-1.08,1.16-1.56,1.68-1.46,0-2.58,0-3.7,0-2.23.01-4.39.21-6.61.66-4.92,1.01-9.94,1.53-14.9,2.35-4.23.7-8.43,1.55-12.81,2.37-.31.79-.59,1.54-.89,2.3.51.48.82.97,1.24,1.12,3.24,1.12,6.22,2.91,9.77,3.29,2.01.22,3.9,1.45,5.9,2.08,1.62.51,3.31.8,4.95,1.26,4.26.81,8.41,2.55,13.07,1.65.18,1.02.31,1.82.41,2.36-2.29,3.64-5.44,5.97-8.53,8.37-1,.78-1.45,1.89-2.12,2.88-2.29,3.38-2.72,7.69-5.56,10.75-.98,4.54-4.31,8.02-5.58,12.44-.45,1.57-1.28,2.94-3.29,4.07-.72-.77-1.32-1.4-2.05-2.18,2.01-2.66,1.76-5.85,2.58-8.73.85-3,.18-5.95.74-9.45,1.88-1.69,4.12-3.7,6.35-5.7-.08-.1-.16-.2-.24-.3-5.23,2.27-10.46,4.53-15.87,6.88-.1,1.07-.2,2.15-.32,3.48-4.3,1.64-6.91,6.29-12.15,6.77-1.22-2.66,1.71-3.24,2.34-4.93-.95-1.43-2.23-1.32-3.57-.65-1.46.73-2.89,1.52-4.91.77-.14-.82-.31-1.87-.53-3.18-8.5,3.27-16.96,6.53-25.66,9.88-.26.63-.57,1.57-1.04,2.41-.48.84-1.14,1.58-1.56,2.15-.57.15-.84.32-1.04.25-4.19-1.35-7.56.45-10.99,2.59-2.59,1.61-5.36,3.13-8.84,2.57-.42-.87-.84-1.72-1.33-2.72-.39-.04-.93-.26-1.33-.1-1.49.58-2.99,1.2-4.4,1.96-3.31,1.78-6.79,3.17-10.04,5.13-2.67,1.61-5.74,2.72-8.61,4.12-2.75,1.34-5.43,2.82-8.26,4.04-2.28.98-4.53,2.35-6.95,3.55-.84-.39-1.71-.8-2.64-1.24.18-.48.21-1,.44-1.11,2.88-1.39,5.26-3.61,8.27-4.77.79-.3,1.51-.85,2.23-1.33,3.9-2.6,7.73-5.3,11.7-7.81,2.56-1.62,5.37-2.83,7.94-4.45,3.31-2.08,6.46-4.43,9.74-6.58,3.81-2.5,7.7-4.89,11.53-7.36,4.54-2.92,9.08-5.83,13.57-8.83,1.53-1.03,2.96-2.24,4.29-3.53,2.97-2.86,5.86-5.8,8.75-8.74.68-.69,1.26-1.47,2.01-2.37-.89-1.2-1.67-2.27-2.67-3.62,2.22-1.92,4.41-3.85,6.64-5.75.56-.48,1.26-.79,1.8-1.28,3.19-2.9,6.53-5.66,9.46-8.8s6.38-5.46,10-7.64c2.64-1.59,5.24-3.25,7.77-5,4.26-2.94,8.52-5.89,12.68-8.97,6.45-4.77,12.79-9.68,19.24-14.46,2.67-1.98,5.52-3.71,8.2-5.68,2.98-2.2,5.82-4.58,8.77-6.81,3.35-2.53,6.68-5.08,10.16-7.41,1.51-1.01,3.4-1.44,5.06-2.26,5.3-2.6,10.4-5.77,15.92-7.74Zm-483.92,152.98c.71-3.08,2.6-5.26,5.71-6,1.99-2.1,3.81-4.08,5.71-5.99,3.06-3.08,6.18-6.04,9.81-8.52,3.66-2.5,6.85-5.68,10.25-8.56.38-.32.67-.8,1.09-1.02,4.03-2.11,5.62-6.07,7.51-9.82.44-.87.87-1.78,1.48-2.52,2.23-2.73,4.53-5.39,7.51-8.92.73-1.89,1.91-4.86,3.04-7.85,2.49-6.55,4.97-13.1,7.44-19.66,1.64-4.38,3.26-8.77,4.87-13.15.17-.46.22-.96.39-1.42.83-2.29,1.68-4.57,2.98-6.71v-3.41c.68-1.81,1.36-3.28,1.78-4.82.32-1.17.64-2.49.4-3.63-1.44-6.8-.32-13.66-.61-20.48-.06-1.44.33-2.93.73-4.34,1.37-4.78.37-9.66.79-14.4-.5-.71-.92-1.31-1.07-1.52.39-1.46.94-2.6.97-3.76.1-4.75.56-9.57-.12-14.22-.64-4.34.37-8.81-1.26-13.03-.29-.76-.07-1.73-.07-2.61,0-5.12-.08-10.25.02-15.37.06-3.37-.41-6.63-1.3-9.86-.26-.94-.2-1.97-.21-2.96-.02-6.5-.01-12.99-.03-19.49,0-.99.2-2.13-.2-2.95-1.42-2.93-1.2-6.02-1.31-9.11-.08-2.33-.17-4.75-.85-6.94-.65-2.11-.51-4.16-.61-6.25-.25-5.2-.47-10.4-.79-15.59-.09-1.46-.49-2.9-.75-4.35-.33-1.81-.65-3.62-1.13-6.25-.11-.24-.59-1.24-1.08-2.28.15-3.13-.68-6.03-1.81-8.96-1-2.6-1.35-5.46-1.93-8.21-1.44-6.96-2.74-13.93-5.06-20.7-1.7-4.97-2.59-10.21-3.98-15.3-.94-3.43-2.12-6.8-3.19-10.19-.4-1.28-1.08-2.56-1.15-3.86-.19-3.54-1.63-6.67-2.77-9.91-1.81-5.1-3.16-10.32-4.09-15.65-.06-.34.09-.72.16-1.24.43-.11.88-.23,1.42-.38,3,3.57,4.6,7.84,6.56,11.89.26.55.31,1.2.54,1.76,3.21,7.71,6.28,15.49,9.71,23.1,3.58,7.97,6.87,16.06,10.18,24.14,1.39,3.4,3.18,6.64,4.55,10.06,3.79,9.44,7.85,18.77,12.01,28.05,2.07,4.63,3.89,9.39,6.23,13.93,1.16,2.24,2.19,4.6,3.46,6.82.18.32.58.65.55.94-.27,2.87,1.9,4.74,2.9,7.07,1.01,2.37,2.31,4.63,3.29,7.02,1.34,3.28,2.37,6.67,2.88,10.19.79,5.47,1.45,10.95,2.29,16.41.48,3.15,1.21,6.26,1.87,9.38.61,2.98,1.23,5.97,1.84,8.95.2.96.39,1.92.57,2.88.46,2.42.89,4.82,1.02,7.31.18,3.54.74,7.11,1.59,10.55,1.23,4.99,1.55,9.99,1.18,15.48-.88.3-1.85.63-2.83.97-.83-1.12-1.48-2-2.4-3.26.18-2.23.38-4.8.62-7.89-1.6-3.51-3.73-7.36-6.97-10.85-.85,2.97,1.37,4.68,1.95,7.04v3.69c-1.61,1.77-2.66,3.83-2.26,5.89-1.07,2.7-2.12,4.92-2.84,7.24-2.13,6.79-4.08,13.64-6.2,20.44-.58,1.88-1.56,3.63-2.22,5.49-.57,1.61-.92,3.3-1.44,4.93-.56,1.75-1.22,3.47-1.82,5.22-.4,1.16-.98,2.32-1.1,3.51-.37,3.56-.52,7.15-.83,10.72-.1,1.21-.46,2.4-.62,3.61-.32,2.32-.56,4.64-.87,6.96-.46,3.53-.99,7.05-1.41,10.58-.11.91.1,1.85.17,2.87,1.57-.27,2.13-1.21,2.73-2.16,4.07-6.48,8.18-12.93,12.24-19.42,2.75-4.39,5.35-8.87,8.19-13.2,2.81-4.29,5.64-8.56,8.06-13.1,1.15-2.15,2.79-3.96,3.99-6.14,1.6-2.9,2.11-5.73,2.02-8.76.69-1.26,1.32-2.44,2.03-3.74,1.21-.11,2.55-.23,3.62-.33,1.37-.98,1.15-2.2,1.04-3.27-.2-2.04.53-3.9.88-5.84.47-2.63.72-5.3,1-7.97.19-1.8.24-3.62.42-5.42.19-1.83.54-3.65.7-5.48.31-3.57.37-7.17.82-10.71.49-3.8.31-7.64,1.29-11.45.82-3.18.69-6.62.9-9.94.29-4.42.51-8.85,1.44-13.2.08-.36.04-.75.07-1.12.25-4.07.11-8.22.87-12.19.81-4.23.01-8.49.75-12.59.79-4.4-.09-8.92,1.33-13.22.11-.34.04-.74.06-1.12.25-5.32.24-10.67.81-15.96,1.14-10.6.58-21.22.64-31.83.02-4.42-.47-8.84-1.36-13.2-.22-1.08-.03-2.24-.1-3.36-.07-1.1.01-2.3-.4-3.28-.61-1.46-.18-2.65.28-3.69-.23-1.67-.58-3.12-.59-4.57-.03-4.33-.55-8.6-1.47-12.82-.05-.24-.04-.5-.06-.75-.25-3.82-.4-7.66-.79-11.46-.3-2.92-.98-5.8-1.37-8.71-.36-2.69-.23-5.49-.92-8.07-.94-3.51-.18-7.13-1.26-10.62-.68-2.2-.6-4.63-.9-6.95-.22-1.7-.32-3.45-.79-5.09-1.18-4.05-.49-8.14-.74-12.31.54-.21.98-.37,1.32-.51,2.19,1.48,2.29,3.72,2.81,5.85.87,3.57,2.13,7.05,2.98,10.63,1.5,6.32,2.73,12.7,4.22,19.02,1.29,5.49,2.56,11,4.25,16.36.77,2.42.68,4.87,1.27,7.25.62,2.5,1.36,4.97,1.97,7.47,1.76,7.26,3.42,14.55,5.23,21.8,1.6,6.42,3.71,12.74,4.93,19.23.93,4.96,3.13,9.56,3.48,14.69.2,2.88,1.49,5.67,2.24,8.52,1.46,5.57,2.67,11.21,4.4,16.69,1.4,4.43,2.3,8.94,3.18,13.48.24,1.2.47,2.43.48,3.64.04,9.12-.09,18.24.06,27.36.12,6.88.59,13.75.9,20.63.03.68.04,1.36.05,2.04.06,2.21.09,4.41.18,6.61.05,1.23.29,2.46.3,3.69.04,5.1.01,10.19.6,15.35,1.32-6.39,2.54-12.81,4.01-19.17,1.24-5.37,2.9-10.64,4.14-16.01,1.01-4.39,2.73-8.58,3.54-13.01.4-2.17.8-4.34,1.22-6.5.14-.72.22-1.48.51-2.13,2.26-5.11,2.31-10.77,3.93-16.05,1.4-4.55,2.39-9.23,3.49-13.86.68-2.86,1.22-5.75,1.82-8.63.05-.24-.04-.52.05-.74,2.5-6.33,2.45-13.27,4.76-19.64.25-.68.31-1.44.43-2.16.04-.24-.03-.51.01-.75.82-4.21,1.61-8.42,2.52-12.61.14-.66.83-1.2,1.22-1.74v-4.64c.51-.72,1-1.42,1.49-2.12v-3.85c.49-.7.98-1.4,1.36-1.94.33-4.13.67-8.05,2.14-11.77.13-.34.25-.72.23-1.08-.33-4.55,1.6-8.69,2.44-13.02.53-2.78,1.13-5.5,1.41-8.34.3-3.16,1.14-6.27,1.74-9.4.14-.72.41-1.44.42-2.16.05-3.96.66-7.84,1.46-11.7.17-.84.06-1.74.06-2.62-.03-8.05.31-16.09,1.54-24.06.74-4.82.69-9.64.71-14.48,0-.62.04-1.25,0-1.87-.5-7.72.14-15.45.92-23.07.73-7.11.22-14.17.6-21.23.08-1.46.46-2.91.58-4.37.11-1.36.31-2.79.04-4.09-.99-4.68-.93-9.29-.03-13.98.35-1.81.14-3.73.14-5.6,0-1.16.02-2.27,1.67-2.79,1.88,2.11,2.92,4.56,2.86,7.54-.11,5.08.64,10.08,1.44,15.07.02.12.03.25.04.37.25,4.32.26,8.68.83,12.96.72,5.45.35,10.92.79,16.35.4,5.03.99,10.05,1.51,15.07.66,6.4,1.49,12.76,1.4,19.21,1.56,4.15.29,8.58,1.35,12.86.88,3.54.6,7.37.9,11.06.18,2.2.52,4.4.73,6.6.21,2.2-.42,4.48.68,6.61.21.4.08.98.08,1.48-.04,4.09.76,8.07,1.4,12.08.52,3.28.73,6.63.81,9.96.11,4.7.57,9.34,1.48,13.94.07.36.06.75.06,1.12-.02,6.81,1.09,13.48,2.15,20.18.34,2.13-.2,4.42-.42,6.63-.14,1.46-.61,2.91-.63,4.37-.06,4.83-2.25,9.33-1.93,14.25.17,2.54-.47,5.13-.84,7.69-.38,2.67-.75,5.34-1.36,7.96-.97,4.17-.44,8.41-.78,12.6-.31,3.78-1.16,7.51-1.76,11.26-.16.97-.4,1.94-.4,2.91,0,4.59-1.13,9.02-1.81,13.52-.2,1.34-.29,2.69-.47,4.03-.56,4.26-.77,8.62-3.5,12.56-.78-.07-1.71-.14-2.68-.22-.48-1.36-.89-2.5-1.34-3.8.99-3.16,2.01-6.44,2.97-9.54-1.23-4.62-.06-9.61-2.98-13.69q-1.32,1.68-1.5,9.67c-3.85,6.33-7.49,12.43-11.25,18.46-3.33,5.34-6.92,10.52-10.15,15.92-2.71,4.53-5.72,8.88-8.08,13.65-1.3,2.63-3.27,4.93-4.89,7.4-1.09,1.65-1.67,3.54-2.45,5.32-2.55,5.83-4.16,12.04-7.31,17.62-.95,1.68-1.29,3.7-1.97,5.77,1.58.44,3.79-.18,4.78,2.48.64,2.67.27,6.19,2.93,8.87h1.91c2.42-2.88,4.8-5.56,6.99-8.39,1.03-1.33,2.18-2.3,3.76-2.75,1.31-.38,1.98-1.25,2.53-2.48,1.2-2.67,2.51-5.25,4.34-7.61,1.78-2.31,3.16-4.96,4.46-7.59,2.01-4.06,4.5-7.82,6.77-11.72,1.43-2.46,3.04-4.79,5.14-6.79,1.01-.96,1.48-2.48,2.24-3.73,3.56-5.86,7.39-11.57,10.61-17.61,2.38-4.47,5.4-8.5,7.9-12.87,3.04-5.32,5.79-10.82,8.95-16.07,1.71-2.83,3.57-5.55,4.69-8.69,2.48-1.01,2.03-3.93,3.73-5.63,1.57-1.56,2.31-4.01,3.26-6.14,1.79-4.04,4.18-7.72,6.4-11.52,1.63-2.78,2.96-5.73,4.36-8.64,2.65-5.53,5.26-11.07,6.83-17.06.27-1.03.78-2.17,1.08-3.26.29-1.06.19-2.22.25-3.09,2.88-6.97,4.71-14.06,7.34-21.83.78-4.88.96-10.83,3.63-16.29.68-1.38.65-3.11.96-4.67.51-2.52.87-5.09,1.59-7.56,1.44-4.97,2.17-10.06,2.96-15.15.49-3.14,1.41-6.21,2.22-9.29.17-.66.69-1.23,1.17-2.06.75.55,1.35.94,1.88,1.41.47.4.86.89,1.42,1.48,0,4.9.4,9.93-.13,14.86-.41,3.72-.16,7.46-.7,11.1-1.26,8.57-.01,17.19-.8,25.72-.41,4.4-.05,8.89-1.28,13.22-.23.81-.07,1.74-.08,2.61,0,2.37-.15,4.76.04,7.12.19,2.32-.66,4.61-.1,6.92.08.32-.12.72-.24,1.06-.78,2.21-.69,4.37.16,6.01-.24,1.94-.57,3.39-.58,4.85-.05,7.62-.02,15.24-.03,22.86,0,3.15.06,6.3-.68,9.41-.22.94-.26,2.09.08,2.96,1.58,4.07.03,7.87-1.26,11.48-1.47,4.1-4.07,7.78-4.97,12.16-.16.79-.98,1.42-1.31,2.2-1.3,3.03-2.54,6.08-3.78,9.13-.18.45-.31.95-.37,1.43-.67,5.48-3.39,10.18-5.61,15.09-.91,2.01-1.47,4.18-2.33,6.22-1.45,3.48-2.91,6.96-4.56,10.34-.79,1.63-2.03,3.04-2.96,4.39h-3.47c-.42-1.35-.88-2.8-1.32-4.23,1.55-2.02,2.89-3.78,4.48-5.85-.66-3.25.21-7.1-1.54-10.63-1.49-.14-1.72,1.29-1.74,1.95-.13,3.65-1.71,5.87-5.2,7.25-2.35.93-4.45,2.66-6.46,4.28-3.63,2.92-7.58,5.35-11.44,7.92-7.16,4.77-14.37,9.45-21.24,14.65-1.37,1.04-3.08,1.65-4.39,2.75-1.65,1.39-3.04,3.08-4.93,5.04,1.67.07,2.74.2,3.8.15,2.22-.11,4.43-.44,6.65-.44,2.34,0,4.68.36,7.02.45,2.25.08,4.5.1,6.74,0,4.57-.19,9.14-.59,13.72-.68,1.9-.04,3.81.52,5.75.81v13.24c-1.7,1.38-3.32,2.59-4.8,3.95-1.9,1.75-3.62,3.69-5.52,5.44-2.1,1.93-4.29,3.75-6.47,5.59-.94.8-1.97,1.49-2.88,2.32-3.23,2.91-6.41,5.87-9.64,8.79-4.66,4.21-9.33,8.42-14.03,12.6-1.57,1.4-3.27,2.65-4.79,4.1-1.24,1.18-2.21,2.63-3.45,3.81-2.18,2.08-4.47,4.04-7.18,6.47.93,0,1.43.16,1.68-.02,5.51-4.17,10.84-8.6,16.53-12.52,5.59-3.85,10.93-8.02,16.36-12.07,3.71-2.77,7.46-5.49,10.68-8.96,4.29-4.62,8.95-8.95,13.77-13.03,2.89-2.45,5.84-4.84,8.69-7.33,3.29-2.89,5.97-6.29,8.29-9.99.52-.82,1.13-1.59,1.73-2.43h7.83c1.6-1.84,3.15-3.76,4.86-5.54,1.19-1.24,2.68-2.18,3.88-3.41,4.27-4.36,8.39-8.87,12.72-13.17,6.09-6.07,12.34-11.99,18.48-18.01,2.29-2.25,4.43-4.66,6.7-6.94,2.63-2.65,5.32-5.25,7.99-7.87.09-.09.24-.12.3-.21,3.67-5.54,9.2-9.45,12.97-14.93,1.68-2.43,3.77-4.6,5.81-6.76,3.33-3.54,5.83-7.64,8.3-11.78.69-1.16,1.58-2.2,2.38-3.3,3.58-4.96,7.32-9.8,10.68-14.9,3.38-5.13,6.38-10.52,9.52-15.8,3.34-5.6,6.63-11.22,9.98-16.82,2.03-3.39,4.08-6.77,6.19-10.11.91-1.45,1.99-2.79,2.96-4.13.51.04.87.07,1.3.11.13.34.42.71.36,1-.34,1.68-.53,3.44-1.22,4.98-1.96,4.38-4.14,8.65-6.21,12.98-.78,1.63-1.52,3.28-2.28,4.92-3.21,6.9-6.42,13.81-9.62,20.71-1.45,3.12-2.85,6.25-4.31,9.36-2.21,4.71-4.23,9.52-6.74,14.07-1.45,2.61-1.95,5.56-3.53,8.07-1.58,2.51-2.58,5.28-3.72,8-2.09,5-4.62,9.81-6.88,14.74-1.42,3.11-2.68,6.29-4.04,9.43-.77,1.79-1.59,3.56-2.4,5.34-1.68,3.69-3.39,7.37-5.06,11.06-.95,2.11-1.25,4.49-2.79,6.35-2.29,2.76-4.62,5.49-6.78,8.34-3.57,4.73-7.87,8.87-11.11,13.88-1.18,1.83-3.18,3.12-4.37,4.94-2.2,3.35-5.01,6.2-7.36,9.42-2.98,4.09-6.41,7.84-9.67,11.72-.38.46-.91.8-1.34,1.18q-1.53-1.27-1.53-3.7c1.63-1.15,3.43-2.42,5.51-3.89.66-3.99,4.08-7.59,3.1-12.65-.98.38-1.73.68-2.32.91-.58,1.67-1.09,3.16-1.67,4.84-1.78.36-3.5.55-5.11,1.08-2.19.72-4.28,1.77-6.45,2.55-1.72.61-3.5,1.03-5.28,1.39-2.57,1.08-5.04,2.6-7.72,3.15-4.59.94-8.57,3.55-13.24,4.25-1.57.24-3.03,1.51-4.45,2.44-2.86,1.86-5.74,3.72-8.47,5.77-1.15.86-1.83,2.31-2.89,3.31-3.53,3.32-6.53,7.2-10.59,9.98-1.17.8-2.09,2.04-2.97,3.19-1.89,2.51-4.46,4.31-7.05,5.81-4.05,2.34-7.66,5.28-11.65,7.71-5.47,3.33-10.56,7.27-15.84,10.92-.59.41-1.29.64-1.94.97-3.56,1.84-6.34,4.3-6.87,8.59-.09.71-.41,1.39-.63,2.1,1.77,1.34,4.45-.67,5.89,1.91-.63,1.46-1.79,2.43-3.26,3.22-5.62,3.02-11.22,6.09-16.81,9.18-3.9,2.15-7.79,4.31-11.62,6.57-1,.59-1.76,1.59-2.93,2.69,3.86.66,6.38-1.47,9.2-2.53,3.19-1.2,5.95-3.27,9.28-4.3,2.78-.87,5.32-2.54,7.95-3.88,6.16-3.13,12.29-6.33,18.69-9,1.68-.7,3.21-1.76,4.86-2.56,4.73-2.29,9.48-4.52,14.22-6.8.88-.42,1.68-.99,2.54-1.44,1.41-.73,2.84-1.43,4.27-2.12.22-.11.53-.05.71-.19,3.14-2.46,7.2-3.02,10.5-5.17,1.1-.72,2.43-1.36,3.71-1.49,5.75-.6,11.08-2.26,15.88-5.52.51-.35,1.07-.62,1.71-1-.19-.69-.39-1.37-.67-2.37.52-.5,1.13-1.1,1.69-1.64h3.74c1.85-.81,3.17-1.39,4.49-1.97,2.69-2.06,5.22-4.42,8.61-5.53.35-.11.7-.29.98-.51,5.11-4.04,10.65-7.45,16.1-11,3.1-2.01,5.97-4.37,8.99-6.51,1.31-.93,2.66-1.82,4.08-2.55,5.34-2.73,10.13-6.28,14.98-9.76.4-.29.87-.47,1.31-.7,6.37-3.33,12.04-7.73,17.93-11.8,3.04-2.1,6.25-3.96,9.35-5.99,3.4-2.23,6.72-4.6,10.16-6.78,2.78-1.77,5.09-4.26,8.25-5.44.22-.08.41-.28.58-.46,3.96-3.96,8.75-6.84,13.13-10.26,4.74-3.71,9.2-7.81,13.56-11.97,5.69-5.43,11.24-11.02,16.71-16.68,5.29-5.48,10.36-11.16,15.59-16.7,3.54-3.75,7.21-7.38,10.75-11.12,2.65-2.79,5.19-5.68,7.8-8.51.68-.73,1.36-1.53,2.62-1.08.73.82.65,1.79.17,2.7-.7,1.3-1.43,2.61-2.3,3.81-4.22,5.78-8.43,11.56-12.76,17.25-2.4,3.15-5.13,6.04-7.52,9.19-1.32,1.74-2.37,3.66-3.76,5.39-3.79,4.7-7.35,9.6-10.91,14.48-2.83,3.88-5.45,7.91-8.29,11.78-1.53,2.09-3.31,3.96-4.78,6.14-3.36,4.99-7.17,9.67-10.79,14.48-.3.39-.47.89-.81,1.23-1.47,1.49-2.55,3.22-3.7,4.98-1.91,2.94-3.69,6.09-6.44,8.44-.27.23-.45.61-.56.95-1.02,3.23-4.36,4.98-5.29,8.26-3.3,2.8-4.92,7.04-8.49,9.65-3.84,2.8-7.53,5.82-11.23,8.82-2.21,1.79-4.28,3.76-6.48,5.58-2.26,1.86-4.6,3.62-7.25,5.7.02-.06-.12.41-.12.44-7.88,5.24-14.29,11.7-21.81,17.33-.52-.7-1.03-1.39-1.51-2.04,1.77-2.94,4.34-4.06,7.73-5.13,1.86-3.37,3.97-7.19,6.27-11.37-1.22-.12-1.94-.19-3.3-.32-1.05,1.42-2.32,3.13-3.32,4.48h-4.09c-.77.53-1.48,1.01-2.28,1.56h-9.83c-.61.42-1.31.91-2.05,1.43-.33.03-.7.06-1.07.08-4.7.25-9.4.49-14.11.74-.73.51-1.44,1.01-2.16,1.52h-7.16c-1.75.81-3.13,1.77-4.64,2.06-2.36.45-4.3,1.63-6.28,2.8-3.59,2.12-6.82,4.69-10.06,7.34-2.32,1.9-4.9,3.63-7.33,5.48-2.16,1.64-4.35,3.23-6.57,4.79-4.86,3.41-10.03,6.3-15.24,9.12-4.32,2.34-8.48,4.95-12.71,7.45-2.85,1.69-5.6,3.59-8.59,4.97-1.16.54-2.06,1.26-3.09,1.9-3.23,1.99-6.53,3.88-9.85,5.74-4.06,2.27-8.16,4.47-12.24,6.71-.54.3-1.03.68-1.57.96-4.77,2.53-9.55,5.02-14.31,7.56-2.05,1.1-4.06,2.28-6.2,3.48v2.38c1.46-.36,2.81-.46,3.94-1,5.29-2.56,10.5-5.29,15.79-7.87,3.53-1.73,7.21-3.16,10.69-4.98,4.55-2.38,9.08-4.85,13.62-7.24,2.86-1.51,5.59-3.37,8.69-4.5,2.06-.75,3.93-2.03,5.9-3.05,2.05-1.06,4.14-2.03,6.16-3.14,1.04-.57,1.96-1.36,3.25-2.27,9.07-3.99,17.87-9.52,27.23-14.14,1.07,2.01-.14,2.87-1.2,3.65-.99.73-2.19,1.16-3.2,1.86-2.82,1.99-5.54,4.13-8.4,6.06-2.64,1.78-5.41,3.35-8.08,4.99-1.11-.27-2.17-.52-3.08-.74-3.23,2.27-6.21,4.44-9.27,6.51-2.73,1.84-5.6,3.5-8.31,5.37-1.62,1.12-3.08,2.49-4.58,3.77-3.01,2.57-6.02,5.15-9,7.75-1.18,1.03-2.23,2.2-3.42,3.22-3.84,3.29-7.71,6.54-11.89,10.08-1.25.33-2.92.76-5.01,1.3-.16.81-.37,1.81-.63,3.1,1.57.1,2.78.18,3.41.22,4.47-2.39,8.46-4.53,12.59-6.74,2.58.05,5.1-.07,7.62-1.8,1.9-1.3,4.68-1.25,7.02-1.97,4.65-1.45,9.22-3.2,13.92-4.47,3.65-.99,7.16-2.41,10.75-3.41,4.44-1.24,8.91-2.41,13.3-3.84.46-.15.97-.22,1.45-.22.35,0,.69.17,1.83.48-1.04.85-1.5,1.46-2.1,1.67-3.46,1.22-6.79,2.76-10.23,3.99-2.65.95-5.4,1.58-7.75,3.24-4.59.15-8.01,3.84-12.55,4.15-.24.02-.5.1-.69.24-3.41,2.29-7.43,3.17-11.14,4.78-3.59,1.57-7.39,2.66-11.12,3.91-1.5.5-2.88,1.15-4.81,2.57,1.54.17,2.41.53,3.05.29,3.35-1.26,6.98-1.76,10.19-3.11,2.49-1.05,5.39-.87,7.43-2.72,2.78.08,5.3-.34,7.49-2.24h3.21c.79-.56,1.5-1.05,2.19-1.54h3.72c2.44-1.74,5.17-2.42,7.95-2.98.48-.1,1.01-.04,1.47-.19,4.76-1.61,9.49-3.35,14.28-4.87,5.96-1.89,11.97-3.61,17.96-5.43,3.17-.96,6.31-1.98,9.47-2.97,6.55-2.06,13.3-3.65,19.59-6.33,4.3-1.83,9.03-2.44,12.5-4.96,2.82.41,5.11.74,7.53,1.09-.36,1.18-.68,2.23-1.08,3.51-6.41,3.86-12.92,7.88-19.52,11.75-5.97,3.5-12.47,5.89-18.79,8.66-3.27,1.43-6.39,3.2-9.6,4.77-.88.43-1.86.65-2.76,1.05-3.93,1.77-7.84,3.57-11.77,5.35-.89.4-1.81.74-2.72,1.11-4.65,1.93-9.22,4.09-13.98,5.69-2.29.77-4.57,1.59-6.82,2.47-1.24.48-2.44,1.08-4.04,1.8h-1.91c-2.37,1.05-4.12,1.94-5.96,2.6-1.49.53-3.08.79-4.63,1.15-.24.06-.58-.04-.73.1-2.96,2.76-7.18,2.49-10.5,4.4-1.25.72-2.76,1.02-4.15,1.49-1.51.5-3.03.98-4.55,1.46-1.64.52-3.29.99-4.91,1.57-1.37.49-2.7,1.1-4.06,1.65-.79.32-1.57.68-2.39.92-8.18,2.35-15.98,5.72-23.85,8.9-3.88,1.57-7.87,2.84-11.74,4.43-3.85,1.58-7.66,3.24-11.67,4.42-1.73.51-3.37,1.47-4.93,2.41-1.03.62-2.13,1.43-1.61,3.16,1.25.45,2.47.34,3.83-.18,4.35-1.65,8.77-3.13,13.16-4.71,1.02-.37,2-.88,3.48-1.53h2.32c1.09-.54,2.05-1.39,3.05-1.45,5.77-.29,10.42-4.94,16.94-4.44-2.91,4.03-8.07,3.78-10.48,6.76-.85,2.71.83,5.47-1.63,7.49-2.1-.72-4.15-1.65-6.03.48v2.52c1.09.9,2.23,1.83,3.61,2.96h18.34c1.06,2.01-.65,2.53-.95,3-3.44.83-6.36,1.33-9.13,2.27-3.17,1.07-6.36,1.83-9.67,2.17-1.09.11-2.16.49-3.22.8-2.81.84-5.6,1.72-8.72,2.68,2.66.41,5.11.49,7.46.1,4.01-.66,8.02-1.18,12.08-1.4,2.21-.12,4.44-.33,6.58-.82,3.49-.8,7.03-1.06,10.57-1.5,6.93-.86,13.96-.96,20.79-2.75,2.71-.71,5.63-.56,8.44-.92,1.94-.25,3.86-.69,5.79-1.03,3.62-.65,7.23-1.32,10.85-1.93.57-.1,1.19.1,1.72.15.37,1.36-.38,1.77-1.26,2.04-5.05,1.53-10.1,3.08-15.18,4.52-1.08.3-1.79.65-1.99,2.26,12.3-2.66,24.68-3.15,37.06-5.83.7.64,1.59,1.47,2.71,2.5-1.8,1.52-3.47,2.92-5.45,4.59.88.13,1.45.4,1.76.22,2.89-1.65,6.25-1.2,9.28-2.18,5.01-1.62,9.98-3.49,15.1-4.65,5.16-1.16,9.83-3.91,15.16-4.39.48-.04,1.03-.07,1.43-.31,2.8-1.7,6-2.15,9.06-3.03,5.42-1.56,10.73-3.56,16.22-4.8,4.4-.99,7.72-3.73,11.49-5.74,2.58-1.37,4.88-3.25,7.39-4.76,5.5-3.31,11.09-6.49,16.58-9.82,2.82-1.71,5.45-3.72,8.25-5.46,2.49-1.55,5.16-2.82,7.65-4.38,3.34-2.08,6.75-4.12,9.82-6.57,1.65-1.32,2.66-3.45,3.93-5.24,2.41-3.39,4.76-6.82,7.19-10.19,1.59-2.2,3.24-4.35,4.92-6.48.82-1.05,1.84-1.94,2.65-3,.57-.75.92-1.66,1.45-2.64,3.1-.32,6.15-1.62,9.43-.81,2.29,1.79.25,3.6.09,5.31-.99.53-1.91,1.03-3.36,1.81,1.11.76,1.7,1.46,2.4,1.59,2.29.41,4.62.61,6.92.89,1.04,1.09,1.98,2.09,3.08,3.24v2.31c-.2.25-.32.49-.51.63-5.93,4.21-11.87,8.42-17.81,12.61-3.33,2.34-6.73,4.58-9.99,7.02-2.67,1.99-5.79,3.34-8.13,5.8-.57.6-1.47.9-2.25,1.28-5.39,2.71-10.76,5.44-16.18,8.09-3.09,1.51-6.28,2.79-9.36,4.32-3.75,1.86-7.32,4.14-11.18,5.72-2.83,1.16-5.35,2.87-8.3,3.84-3.11,1.02-5.9,2.99-8.88,4.45-1.19.59-2.49.96-3.76,1.37-1.63.53-3.27,1-4.91,1.51-5.16,1.61-10.3,3.27-15.48,4.79-1.4.41-2.92.44-4.31.83-2.08.62-4.15,1.28-6.24,1.87-2.13.6-4.36.91-6.38,1.75-3.89,1.62-7.96,2.47-11.99,3.53-2.37.62-4.64,1.6-7.02,2.17-2.74.65-5.57.92-8.31,1.55-7.4,1.71-15.01,2.27-22.39,4.25-3.12.84-6.54,1-9.78,1.72-1.32.3-2.65.53-3.96.84-.71.17-1.42.68-2.1.62-4.82-.42-9.18,1.65-13.77,2.44-6.28,1.09-12.22,3.62-18.58,4.49-1.51.21-2.91,1.23-3.77,1.61-2.6.64-4.62,1.13-6.63,1.62.03.12.05.24.08.37-2.25,0-4.5-.06-6.74.01-6.32.19-12.64.44-18.79.65-.79.58-1.39,1.02-2.11,1.55h-3.91c-.81.56-1.51,1.05-2.22,1.55-4.55-.41-8.42,1.59-13.22,3.47,6.32.56,11.77.26,17.06-.59.99,1.3.69,2.27-.3,2.77-2.72,1.36-5.52,2.56-8.7,3.24-1.27,1.54-2.54,3.09-3.3,4.01-6.66,1.61-12.49,3.01-18.39,4.44v2.74c1.62.29,3.27.82,4.94.85,5.32.1,10.59.3,15.68,2.14,1.01.36,2.22.16,3.72.24.33.62.75,1.41,1.21,2.29-.65.29-.97.56-1.3.56-2.22.02-4.4-.18-6.62-.5-2.86-.41-5.87-.55-8.85.42-2.65.87-5.51,1.17-8.29,1.57-4.51.64-8.92,1.63-13.27,2.97-.81.25-1.73.13-2.56.18q-2.22,2.04-1.39,4.75c3.86.87,7.79,1.77,11.72,2.64,5.62,1.24,11.22,2.57,16.87,3.66,2.65.51,5.39.78,8.09.81,7.21.07,14.36,1.33,21.59.81.47-.03.95.1,1.85.2-.31,1.03-.55,1.85-.81,2.71h-23.72c-1.21.57-2.22,1.05-3.35,1.58-1.87,0-3.87-.01-5.87,0-6.08.04-12.11,1.23-18.21.77-3.88,1.66-8.19-.23-12.07,1.44-3.15-1.11-6.27.36-9.44.1-3.35-.27-6.79-.41-10.1.04-4.4.59-8.87.2-13.23,1.29-1.61.4-3.36.21-5.09.29.1,1.6.92,1.85,1.99,2.09,3.12.7,3.43,1.12,3.9,4.03.17,1.08.47,2.15.74,3.39-.34.64-.73,1.4-1.25,2.38-7.58-5.13-15.08-10.19-22.51-15.22h-10.41c-2.39-2.15-.12-3.71.61-5.91-2.45,1.54-4.56,2.53-5.27,4.86-3.76.69-10.47.45-14.2-.17-2.91-.48-5.88-.77-8.83-.84-5.72-.13-11.45-.04-17.41-.04-.09-1.32-.17-2.4-.2-2.87.76-2.16,1.1-3.89,1.96-5.29.61-1,.86-1.97,1.15-3.04.39-1.38,1.14-2.69,1.86-3.96,1.77-3.12,3.79-6.1,5.34-9.32,1.07-2.22,2.74-3.8,4.3-5.56.95-1.07,1.67-2.35,2.39-3.4,1.42-1.51,2.79-2.85,4.04-4.31,1.27-1.5,2.85-2.52,4.45-3.63,2.02-1.4,3.75-3.25,5.49-5.02,1.6-1.63,3.27-3.05,5.78-3.29.96-1.1,1.95-2.24,2.91-3.34.89-.12,1.62-.21,1.87-.25,1.31-.9,2.23-1.63,3.24-2.22,1.79-1.05,3.64-2,5.45-3.03,1.78-1.01,3.46-2.23,5.32-3.04,2.99-1.3,6.1-2.34,9.81-3.73,1.16-.57,2.96-1.46,5-2.47-2.05-1.21-3.61.67-5.36.44-.78-.11-1.66.64-2.46.57-2.41-.2-4.39.58-6.09,2.29h-3.39l.14.45c-4.33,1.73-8.66,3.45-13.21,5.26-1.03,1.6-2.75,2.62-4.77,3.37-2.47.91-5.14,1.57-6.75,3.98-.06.1-.19.17-.3.22-6,2.37-9.97,7.57-15.25,10.95-1.41.9-2.47,2.35-3.64,3.6-2.88,3.09-5.7,6.23-8.59,9.31-.92.98-2.03,1.78-2.96,2.74-2.02,2.1-3.52,4.59-5.14,7-1.92,2.86-3.32,6-5.58,8.73-1.89,2.28-2.62,5.53-4,8.65-1.97,1.2-4.41,1.79-7.1,1.73-1.69-.04-3.4.32-5.53.54-1.73-1.06-2.77-2.88-2.63-5.34.18-3.08-.6-6.23.88-9.38-2.28-2.25-2.46-5.13-2.42-8.19.1-8.62.03-17.24.05-25.86,0-1.11-.14-2.37.31-3.3,1.38-2.83,1.16-5.79,1.16-8.76,0-2.59-.14-5.18,2.13-7.12.38-.33.33-1.16.5-1.85-1.41-1.09-1.37-2.54-.81-4.14,1.37-3.94,3.44-7.81,3.86-11.85.47-4.54,3.03-8.34,3.42-12.79.07-.76.98-1.42,1.26-2.21.49-1.38.78-2.84,1.11-4.09.72-.81,1.74-1.43,1.92-2.25.96-4.18,3.3-7.61,5.61-11.08.62-.92,1.06-1.96,1.65-3.06,4.43-3.53,10.48-4.95,14.25-9.95Zm379.64,111.01c-.58-1.56-1.1-2.97-1.76-4.74-9.97,3.69-20.18,5.37-29.47,9.77-.17,1.48-.29,2.57-.46,4.06-.4.38-1.04.97-1.1,1.03-6.57.48-12.42.9-18.38,1.33-.62.44-1.33.94-1.62,1.14-5.03.37-9.67.32-14.14,1.17-3.49.67-6.97.1-10.36.69-5.58.97-11.4-.14-16.84,1.98-.55.22-1.23.21-1.84.18-5.1-.29-10.19.1-15.21.83-9.06,1.32-18.15.32-27.21.7-2.46.1-4.96-.37-7.37.66-.58.25-1.42-.15-2.17-.26-.93.34-1.92.97-2.94,1.02-6.57.34-13.14.58-19.71.78-2.87.09-5.74.02-8.91.02-.59-.66-1.29-1.44-2-2.23.39-.36.54-.65.73-.67,4.06-.46,8.21-.45,12.17-1.07,3.79-.59,7.61-.08,11.39-1.11,2.56-.7,5.46-.09,8.21-.19,5.2-.2,10.46-.05,15.56-.88,4.12-.67,8.2-.13,12.23-.66,5.69-.75,11.43-.26,17.08-.85,3.21-.34,6.41-.35,9.61-.61,5.15-.42,10.3-.93,15.44-1.54,1.31-.16,2.54-.92,3.84-1.3,5.78-1.67,11.57-3.29,17.36-4.93.35-.1.7-.39,1.03-.38,4.66.21,8.47-2.4,13.22-3.8h2.42c3.05-.99,5.69-2.09,8.43-2.69,4.08-.91,7.97-2.28,11.74-4.03,4.24-1.97,8.94-2.83,12.86-5.59,1.12-.79,2.78-.75,4.11-1.29,3.08-1.25,6.1-2.64,9.15-3.94,3.04-1.3,6.08-2.59,9.15-3.81.77-.3,1.65-.32,2.46-.47,1.12,1.06,2.12,2,3.14,2.97h4.39c.75-.62,1.69-1.39,2.9-2.38,1.29,1.45,2.5,2.81,3.92,4.41.62.28,1.59.72,2.77,1.25-1.09,1.15-1.94,2.05-2.92,3.08,1.49,3.13,2.99,6.28,4.69,9.84-.63.43-1.13.77-1.75,1.19-.78-.22-1.6-.44-1.77-.49-11.07.41-21.42,2.55-32.06,1.81Zm20.02,41.28c-1.31,1.74-2.59,3.87-4.28,5.6-4.2,4.29-8.02,8.88-11.87,13.79h-11.36c.5-1.8,2-2.15,3.1-2.44,2.56-.66,3.95-2.54,5.73-4.21,3.31-3.1,6.01-6.81,9.84-9.43,2.39-1.63,4.28-4,6.62-6.25.68.9,1.36,1.79,2.22,2.93Zm-61.99,26.95c-.32.27-.65.54-.97.81-.19-.25-.38-.49-.58-.74.35-.22.7-.45,1.04-.67l.5.6Zm72.62-106.11c-.28.67-.57,1.38-.66,2.09-.24,1.86-1.23,3.2-2.52,4.21-2.09.67-3.24-.32-4.15-1.8-.5-2.83.29-5.39,1.44-7.92,1.52-3.36,1.48-3.38,1.36-6.2-1.38-2.48-2.51-4.51-3.65-6.57.78-1.2,1.44-2.22,2.14-3.3,2.48-.16,4.68-1.74,7.26-.35.65.35,1.86-.33,3.13-.6.85.31,1.99.72,3.14,1.13,0,.48.11.89-.02,1.21-2.48,6.04-4.99,12.06-7.47,18.09Zm-385.23,176.54c-.66-1.23-1.62-2.61-2.17-4.14-.57-1.6-.74-3.34-1.15-5.3.55-1.21,1.67-1.97,3.98-1.46,1.57,1.89,3.45,4.16,5.32,6.44.47.57.81,1.27,1.35,1.75,3.64,3.26,6.4,7.19,9.08,11.24,1.7,2.56,3.68,4.97,5.13,7.68,1.48,2.76,2.49,5.79,4.1,8.47.87,1.45,1.64,2.92,2.33,4.44,1,2.2,1.95,4.43,2.79,6.7.9,2.41,2.26,4.65,2.32,7.36.02.88.82,1.73,1.41,2.87v3.59c.43.62.92,1.32,1.48,2.13v4.04c.88,1.96,1.62,3.62,2.33,5.22-2.58,1.91-4.5,1.78-6.11-.42-.85-1.17-1.44-2.53-2.15-3.81-1.28-2.3-2.46-4.66-3.86-6.88-.89-1.41-2.2-2.55-3.15-3.93-1.31-1.9-3.32-3.38-4.3-5.28-1.13-2.17-2.75-3.74-4.21-5.54-.15-.19-.17-.53-.36-.65-4.62-3-8.39-7.26-13.25-8.96-1.3-1.66-2.09-2.68-3.17-4.07-.37-1.83,1.47-3.38,2.11-5.43-.85-2.97-.85-12.87.13-16.07Zm-4.39-80.99c-.67,1.04-1.32,2.06-2.04,3.17,1.34,3.13-.56,5.26-2.51,7.61.43.37.86.75,1.39,1.21.19,2.72.41,5.52-1.69,8.13.15.13.44.39.88.77v6.6c-.9.35-1.8.7-2.88,1.11-.54-.26-1.2-.57-2.01-.95-.72-2.08-2.68-3.7-2.74-6.22,0-.33-.24-.79-.51-.97-2.7-1.76-2.67-5.14-4.46-7.41-1.82-2.3-2.11-5.21-3.36-7.74-.78-1.57-1-3.42-1.89-5.07v-3.72c-.49-1.03-.97-2.03-1.42-2.98v-4.31c8.36-1.27,16.57,1.01,25.23.38.37,3.33-1.43,5.48-2.43,7.98.13.68.28,1.51.44,2.41Zm41.02,29.86c-2.9,2.6-4.78,5.9-6.73,9.19-.98,1.66-2.79,2.9-3.49,4.62-.78,1.92-3.11,1.83-3.5,3.81-2.3-.24-3.38-1.52-3.94-2.77-2.1-4.67-4.69-9.22-4.81-14.21-1.07-2.28-2-4.27-2.96-6.3.49-.7.91-1.29,1.36-1.94-1.58-1.99-2.89-4.07-1.49-6.84-.58-1.26-1.19-2.59-1.91-4.17.15-.15.46-.48,1.01-1.07-1.95-2.33-1.99-5.34-1.92-8.39.08-3.62.02-7.23.02-11.24.54-.4,1.23-.92,2.22-1.66,7.29,0,14.9,0,22.51,0,3.5,0,7.08.49,10.47-.13,4.11-.75,8.17-.42,12.24-.6.49-.02.99.05,1.78.1.19,2.15.38,4.3.58,6.65-1.36,1.55-3.47.23-5.31,1.04-.21.41-.48.96-.84,1.7,4.03.28,7.18,2.27,10.91,4.64-3.55,1.29-5.16,4.05-7.55,5.87-3.88,2.97-6.74,6.9-10.1,10.33-2.6,2.66-4.53,5.98-6.76,9.01-.58.79-1.06,1.7-1.78,2.34Zm-106.9-148.42c-.79.89-1.33,2.15-1.58,3.33-.82,3.87-2.64,7.3-4.34,10.79-.36.75-.29,1.7-.57,2.51-.69,2.01-1.55,3.97-2.2,6-.67,2.1-1.18,4.25-1.72,6.39-.38,1.5-.68,3.02-1.21,5.35.61,1.72-.57,3.36-2.04,5.01.3,1.86.61,3.79.91,5.67-.6.86-1.08,1.57-1.68,2.43,0,.47-.02,1.09,0,1.71.18,4.28-.44,8.54-.08,12.83.15,1.76-.51,3.59-.87,5.78.65.74.86,1.93.77,3.59-.24,4.55.03,9.14.22,13.7.05,1.19.55,2.36.89,3.75-1.05.57-1.98,1.08-2.9,1.58-1.3-.85-2.43-1.59-3.72-2.43-.41-2.13-1.67-3.86-3.17-5.59-1.96-2.26-3.96-4.57-5.16-7.4-.73-1.73-1.66-3.27-3.07-4.66-1.91-1.88-2.89-4.47-3.95-6.95-.39-.9-.72-1.92-1.38-2.6-2.98-3.08-4.84-6.9-7.09-10.46-.7-1.12-1-2.49-1.53-3.87-2.09-1.15-2.75-3.46-3.39-5.62-.44-1.51-.85-2.78-2.33-3.51-1.6-.79-.95-2.96-1.96-3.74-1.52-1.18-.72-2.44-1.07-3.73,2.74-2.2,4.88-4.79,7.8-6.67,2.22-1.43,3.68-4,5.64-5.89,4.92-4.71,9.97-9.26,15.38-13.43,3.11-2.39,5.89-5.21,8.83-7.82,4.63-4.13,9.24-8.26,13.9-12.35.64-.56,1.44-1.02,2.24-1.3,3.26-1.15,5.95-3.34,9-4.85,1.39-.69,2.76-1.4,4.38-1.85-3.25,6.25-7.28,11.97-10.06,18.81-.25.18-.84.61-1.54,1.11.1,1.59-.19,3.06-1.37,4.39Zm16.86-31.06c.05.59.1,1.15.16,1.89h-2c-.11-1.3.42-1.86,1.83-1.89Zm24.24-69.54c-1.8,3.51-3.6,7.01-5.43,10.49-1.77,3.38-3.58,6.74-5.37,10.1-.17.33-.39.64-.53.98-2.74,6.72-7.66,12.02-11.68,17.9-2.5,3.66-5.24,7.16-7.87,10.74-2.85,3.88-5.61,7.83-8.56,11.63-1.19,1.54-2.77,2.77-4.19,4.13-4.46,4.26-8.93,8.49-13.38,12.77-3.79,3.64-7.47,7.4-11.33,10.96-2.26,2.09-4.74,3.94-7.16,5.85-4.17,3.28-8.27,6.67-12.59,9.72-3.63,2.56-6.61,5.97-10.69,7.94-1.07.52-1.84,1.65-2.81,2.56h-2.16c-1.72-3.17-3.42-6.29-5.16-9.49,2.28-3.21,5.34-5.15,8.64-7.07q.4,2.45-2.43,3.78c.05.44.11.9.18,1.53,2.67.1,3.87-2.12,5.65-3.21,2-1.21,3.79-2.75,5.69-4.13,1.79-1.3,3.58-2.62,5.41-3.88,1.82-1.25,3.68-2.44,5.61-3.71.42.33.79.62,1.31,1.02-.78,1.22-1.52,2.37-2.26,3.52.12.17.25.33.37.5.65-.39,1.34-.71,1.94-1.17,2.62-2.03,5.28-4.03,7.78-6.19,1.95-1.68,3.74-3.55,5.52-5.41,1.43-1.49,2.65-3.18,4.12-4.61,2.04-1.99,4.4-3.67,6.31-5.76,3.07-3.35,6.42-6.39,9.62-9.59,2.01-2.01,3.63-4.34,5-6.87,1.35-2.48,3.06-4.77,4.56-7.18,1.11-1.78,2.13-3.62,3.19-5.43,3.48-5.94,6.96-11.89,10.45-17.83.5-.85.99-1.74,1.65-2.45,1.37-1.46,1.63-3.16,1.89-5.09.45-3.38.33-6.84,1.8-10.11.83-1.84.86-4.07,1.06-6.14.16-1.61.03-3.24.03-5.08,2.13-1.28,4.03-2.41,5.95-3.55,2.56,1.25,1.28,3.14.85,5.06,3.3.11,6.69-1.91,9.78.89-.23.58-.45,1.26-.76,1.88Zm-118.96,47.98c.85-.9,2.3-1.23,3.48-1.82,0,0,0,0,0,0,0,0,0,0,0,0v-1.89c.73-.32,1.33-.6,2.13-.95.26,1.96-.45,2.78-2.13,2.84h0s0,0,0,0c-.11.47-.09,1.07-.37,1.39-2.18,2.52-4.41,5-6.64,7.48-2.05,2.29-4.1,4.58-6.3,7.03-.64-.53-1.15-.96-1.6-1.33,2.93-5.23,7.56-8.65,11.43-12.76Zm-15.51.62c-1.86-2.13-1.48-3.93-.44-5.52,2.42-3.68,4.99-7.26,7.53-10.87.25-.36.7-.58,1.04-.85.32.26.52.41.73.58-.13,3.41-3.42,5.15-4.32,8.31-.8,2.83-2.83,5.32-4.54,8.35Zm9.32-18.57c.12-.6.07-1.36.41-1.89,1.84-2.9,3.71-5.77,5.68-8.58,1.45-2.08,3.05-4.05,4.58-6.07.2.09.4.18.6.27-.55,1.28-1,2.6-1.65,3.82-2.05,3.77-4.12,7.54-6.32,11.23-.59.99-1.47,2.12-3.29,1.22Zm2.17,30.02c4.35-4.36,8.69-8.74,13.11-13.03,2.87-2.79,6.04-5.28,8.73-8.22,2.86-3.13,6.08-5.89,8.93-8.97,4.11-4.45,8.72-8.39,12.73-12.93,1.27-1.44,2.48-2.94,3.71-4.41.79-.95,1.56-1.91,2.36-2.88,1.74.05,3.18-1.72,5.02-.44.02.37.21.83.05,1.09-1.95,3.14-4.07,6.17-5.89,9.38-1.34,2.35-2.66,4.61-4.42,6.72-3.46,4.16-6.53,8.65-9.81,12.98-2.23,2.95-4.53,5.84-6.8,8.76-1.51,1.94-2.93,3.97-4.57,5.8-2.5,2.79-5.19,5.41-7.71,8.17-3.56,3.9-7.02,7.89-10.56,11.8-1.23,1.36-2.58,2.62-3.91,3.96-.93-1.19-2.11-2.03-2.26-3.02-.5-3.41-3.49-5.68-3.96-9.25,1.72-1.79,3.46-3.67,5.27-5.48Zm42.52-79.5c-1.2,1.23-1.92,1.96-2.71,2.78-1.08-2.5-.8-2.85,2.71-2.78Zm35.7-25.61c1.81-3.79,3.81-7.48,5.63-11.25,1.44-2.98,2.65-6.08,4.13-9.04,2.42-4.83,5-9.57,7.47-14.38.62-1.2,1.13-2.46,1.56-3.74,1.57-4.6,4.27-8.54,7.14-12.38,2.8-3.76,5.58-7.53,8.43-11.25,1.35-1.77,2.68-3.61,4.32-5.08,1.05-.94,1.83-1.89,2.43-3.14.47-.96,1.3-1.51,2.75-.83-.89,2.45-1.76,4.93-2.69,7.4-2.28,6.09-5.04,11.98-7.01,18.2-1.19,3.74-2.7,7.39-4.23,11-1.05,2.48-2.38,4.85-3.62,7.25-.28.54-.82.96-1.06,1.51-.8,1.79-2.3,3.73-2.08,5.42.34,2.6,1.79,5.08,2.96,7.52.33.68,1.3,1.06,2.2,1.73-.52.63-.95,1.14-1.64,1.96v4.55c-7.37,5.21-14.49,10.23-21.54,15.21v2.59c1.98-.27,3.76-.5,5.53-.75,3.52-.5,7.05-.98,10.57-1.56.83-.14,1.58-.69,2.39-1,2.07-.8,4.14-1.64,6.51-.98.64,1.53.33,2.88-.4,4.28-1.17,2.23-1.62,4.6-1.56,7.16.12,5.24.04,10.49.04,15.74,0,1.23,0,2.46,0,3.87h-2.11c-.09-2.68-.96-5-2.32-7.28-1.53-2.56-2.47-5.44-.61-8.7-2.37.48-2.5,2.58-3.68,3.66-1.17,1.07-2.01,2.49-2.74,3.44-.06,1.29.13,2.31-.21,3.12-.85,2.03-1.85,4.02-2.99,5.9-.32.53-1.36.63-2.59,1.15.25-1.64.4-2.66.57-3.79-.4,0-.85-.14-1.04.02-1.13.98-2.2,2.03-3.47,3.23-.62-.37-1.3-.77-2.3-1.36-3.93,4.35-7.97,8.65-11.65,13.29-.05.91-.09,1.78-.16,3.05-.85.62-1.9,1.38-2.95,2.14-3.07,2.23-4.2,6.25-7.27,8.21-1.66-.15-2.98-.27-4.16-.38-5.13,6.3-9.65,12.74-14.65,19.51-.04.26-.16,1.11-.29,2-1,.85-1.61,2.19-3.46,2.49.1-.88-.02-1.67.3-2.19,2.67-4.29,5.85-8.33,8.02-12.86,1.83-3.8,4.01-7.35,6.07-10.98,3.1-5.46,6.36-10.82,9.42-16.3,2.08-3.73,4.43-7.37,4.62-11.88.04-1.04.85-2.03,1.23-3.06.43-1.13.78-2.29,1.15-3.38-.91-1.05-1.64-1.9-2.4-2.78,2.09-5.21,4.18-10.41,6.32-15.76-.11-.48-.27-1.18-.4-1.76.22-.36.31-.61.49-.78,2.29-2.28,3.69-5.1,5.06-7.97Zm-49.49-3.63c3.06-4.3,4.77-9.3,7.79-13.63,2.51-3.61,4.19-7.79,6.28-11.7,3.02-5.66,5.62-11.53,8.39-17.32,1.65-3.43,3.36-6.9,4.56-10.44,1.09-3.2,1.98-6.56,2.91-9.87,1.22-4.37,2.58-8.69,3.89-13.03.55-1.85.45-3.9,1.85-5.49.38-.43.57-1.13.6-1.72.25-4.87,2.75-9.15,3.6-13.86.28-1.56.64-3.12,1.09-4.65.34-1.15.89-2.25,1.44-3.61,2.21,1.18,1.7,2.99,1.48,4.35-.84,5.2-2.26,10.32-2.74,15.54-.29,3.23-1.16,6.29-1.53,9.44-.37,3.07-.85,6.06-1.52,9.07-.56,2.51-.58,5.13-.86,7.7-.07.61-.19,1.21-.34,1.81-1.03,4.19-1.96,8.38-1.95,12.73,0,1.45-.41,2.91-.72,4.35-.61,2.87-1.28,5.73-1.92,8.6-.13.6-.25,1.21-.31,1.82-.5,5.13-.93,10.26-2.13,15.31-.39,1.65-.06,3.48-.06,4.58-2.59,7.37-6.03,13.66-8.56,20.38-1.72,4.56-3.83,9.03-5.84,13.5-.32.72-.84,1.35-1.56,2.49-1.12-2.83-.22-5.23-.85-7.7-.45-.06-1-.14-1.71-.23-.19,1-.35,1.83-.61,3.18-2.63,2-5.52,4.31-8.52,6.47-3.7,2.66-7.48,5.2-11.25,7.77-1.32.9-2.92,1.51-4.01,2.63-2.9,2.96-6.03,5.7-7.71,9.72-2.3,5.54-4.6,11.12-7.5,16.35-3.29,5.92-7.25,11.48-10.91,17.19-.52.81-.99,1.66-1.54,2.45-.61.88-1.27,1.72-1.74,2.36-1.8.13-2.39-.56-2.77-1.83-.48-1.62-1.24-3.17-2.06-5.21-.19-1.17-.46-2.86-.84-5.25,5.48-7.27,10.14-15.98,18.97-21.29,1.24-2.54,3.13-4.95,2.79-8.13,2.22-1.46,3.77-3.13,4.61-5.65.71-2.16,2.14-4.11,3.46-6.02,2.17-3.15,3.52-6.71,5.3-10.05,2.37-4.45,4.92-8.8,7.39-13.19,1.86-3.32,3.45-6.83,5.64-9.91Zm-17.94,9.43c.67.07,1.23.12,1.81.18.26,1.87-.55,3.02-1.64,4.14-2.21-1.44-.7-2.78-.17-4.32Zm-158.33,644.56c-4.04-1.03-8.03-2.24-12.08-3.23-1.66-.41-3.42-.42-5.48-.65-1.39-2.7-4.52-1.69-7.02-2.42-.99.59-2.04,1.22-2.68,1.6-2.01-.23-3.59-.41-5.05-.58-2.4,3.41-4.07,6.9-4.87,10.86-.83.18-1.5.33-2.2.48-1.12-2.97-.68-6.19-2.14-9.05-2.32,1.03-5,.5-6.34,2.93-4.05.57-6.76-1.45-8.24-5.79-6.92.75-13.86,1.51-20.63,2.25-2.16,2.06-4.24,3.92-6.18,5.93-1.97,2.05-3.75,4.29-5.7,6.38-4.3,4.61-8.68,9.15-12.96,13.79-.82.88-1.49,2-1.91,3.13-1.46,3.91-2.78,7.87-4.19,11.8-.11.31-.53.51-.74.7-1.38-.63-2.4-1.1-3.39-1.55-3.84,7.85-7.5,15.34-11.25,23-.02,8.97.02,18.13-.44,27.41-6.38-4.97-10.3-11.76-15.28-17.58v-3.54c-3.69-6.08-7.54-12.44-11.43-18.86-1.2-.51-2.43-1.04-3.9-1.67-6.34-11.72-14.14-22.81-19.11-35.59v-4.19c1.49-.49,2.98-.98,4.72-1.56.86-8.04,1.73-16.2,2.61-24.48-.68-.78-1.41-1.62-2.28-2.62.88-4.6,1.11-9.43,3.79-13.56.28-5.24.23-10.48.95-15.62.47-3.35.42-6.66.67-9.99.21-2.8.78-5.58,1.2-8.37.07-.49.21-.97.23-1.46.26-5.32.59-10.65.74-15.97.13-4.72.06-4.8,1.86-9.36.52-1.75,1.07-3.49,1.56-5.24.42-1.53.81-3.08,1.16-4.62,1.04-4.58,4.15-8.41,4.74-13.15.15-1.19.36-2.38.56-3.68-1.31-.62-2.38-1.12-3.67-1.73,2.05-2.09,3.77-4.2,5.06-6.64.63-1.2,1.36-2.37,2.23-3.4,1.92-2.26,3.58-4.64,4.67-7.45.51-1.31,1.58-2.4,2.73-4.08.79,1.71,1.33,2.87,1.87,4.04,3.26-.85,4.83-4.57,8.37-4.9.72,4.7.64,5.46-.8,7.96.37.5.74.99,1.09,1.46-.05.28-.02.57-.15.76-1.15,1.75-1.39,3.66-1.26,5.71.1,1.62.12,3.26-.07,4.86-.12.94-.72,1.83-1.11,2.74,2.47,1.72.58,3.44,0,5.19.84,3.58.61,6.96-.68,10.96.14,1.32.35,2.4.36,3.49.04,3.25-.04,6.5.04,9.74.04,1.88-.05,3.72-.83,5.46-.63,1.4-.75,2.66-.21,4.25.44,1.32-.28,2.98-.3,4.5-.02,1.57.18,3.14.32,5.21-.12.17-.54.77-.95,1.36.28,1.14.56,2.26.93,3.78,1.42-1.28.91-2.57.99-3.68.08-1.12.02-2.24.02-3.73.47-.25,1.12-.59,1.59-.84-.39-1.52-.67-2.58-.85-3.27,2.7-6.89,5.26-13.43,7.8-19.93.61-.25,1.17-.48,1.75-.71.06-.4.2-.76.17-1.11-.21-2.84.79-5.28,2.31-7.62,1.29-1.99,2.81-3.87,3.27-6.34.15-.8.85-1.49,1.29-2.23,1.11-1.89,2.25-3.77,3.29-5.7.17-.31-.16-.89-.23-1.24,1.72-2.79,3.52-5.45,5.04-8.25,1.32-2.43,3.18-4.51,4.13-7.21.49-1.4,2.32-2.28,3.14-3.64,1.44-2.37,3.5-4.2,5.18-6.35,1.22-1.56,3.1-1.97,5.14-1.47.67.96,1.36,1.96,2.16,3.11-.5.61-.93,1.15-1.61,1.99-.27,4.82.15,10.05-.27,16.03.26.43.95,1.58,1.69,2.82,0,1.4,0,2.9,0,4.4-.03,4.96.82,9.83,1.82,14.63.33,1.58.27,2.86-.32,4.27.68.79,1.32,1.53,1.91,2.21.37,1.77.69,3.45,1.08,5.12.35,1.47.95,2.91,1.12,4.39.18,1.5.61,2.76,1.48,4,.39.56.14,1.58.21,2.95.56,1.04,1.41,2.65,2.19,4.12-.05.92-.42,1.92-.07,2.5,2.05,3.51,3.07,7.38,4.42,11.16,1.3,3.65,2.32,7.36,4.68,10.67,1.89,2.65,2.49,6.18,4.06,9.09,2.21,4.09,3.79,8.45,5.95,12.54,2.55,4.81,5.3,9.5,7.83,14.32,1.61,3.07,4.04,5.59,5.38,8.89.86,2.11,3.22,3.58,4.27,5.66.86,1.71,1.71,3.26,3.51,5.03-.43-3.52-2.85-5.55-3.35-8.28-.52-2.88-2.52-5.03-3.5-7.83.26-.82.55-1.74.94-2.96-3.54-1.89-2.45-6.16-4.71-8.97,1.05-2.27-.15-4.12-1.58-5.87.28-.82.52-1.5.83-2.38-.62-1.05-1.31-2.21-2.17-3.66v-6.67c-.57-.81-1.06-1.51-1.61-2.31.1-1.81.2-3.65.33-6.14-1.38-3.03-1.38-6.67.16-10.45,1.32-3.26,2.23-6.69,3.3-9.99,1.84-.34,3.37-.62,5.28-.97.5,1.13.92,2.42,1.61,3.53,2.1,3.39,3.73,7.01,5.51,10.57,2.2,4.41,4.65,8.7,6.45,13.31.38.97.93,1.9,1.58,2.71,3.01,3.76,4.84,8.24,7.1,12.39,2.54,4.66,5.33,9.2,7.74,13.95,1.05,2.06,1.83,4.49,4.07,5.93.81.52,1.12,1.82,1.63,2.78,2.84,5.32,7.25,9.62,10.08,15.32-.83.12-1.56.43-2.16.28Zm53.15,10.01c.06-.22.21-.8.36-1.39-3-1.23-2.11-4.43-3.29-6.6-1.16-2.14-2-4.46-2.94-6.59.92-2.16,2.56-2.34,4.46-1.99,2.54,2.59,3.58,6.4,6.69,8.61.5.36.83,1.11,1.36,1.25,3.34.89,4.8,4.04,7.3,5.93.98.75,1.73,1.79,2.68,2.6.63.53,1.43.87,2.59,1.56,1.31,1.91,3.43,3.73,5.76,5.42,2.14,1.55,4.61,2.84,6.36,4.66,1.98,2.06,4.43,3.11,6.59,4.72,2.09,1.55,4.08,3.24,6.24,4.97-.07.31-.18.77-.28,1.21-13.08-2.13-25.45-6.39-38.26-10.02-1.89-4.82-3.7-9.42-5.63-14.35Zm479.53-4.81c2.72-1.97,3.08-1.82,3.85,1.47-1.36-.52-2.49-.95-3.85-1.47Zm261.36-53.99c4.11-5.39,8.16-10.82,12.44-16.52.72.42,1.49.88,2.31,1.36-.87,3.34-2.51,5.98-4.29,8.46-1.66,2.3-3.71,4.32-5.59,6.47-1.71,1.96-3.34,4-5.17,5.85-1.83,1.85-3.85,3.49-5.78,5.24-.74.67-1.67,1.26-2.12,2.09-2.34,4.42-6.5,7.37-8.67,10.93-.71,2.33-1.22,4.01-1.87,6.17.45.96,1.12,2.39,1.67,3.55-1.48,5.76-6.95,5.22-11.4,7.3,3.58,1.02,6.48.46,9.21-.4,2.23-.7,4.36-.64,6.97-.48.27.97.56,1.97.9,3.18-4.04,1.39-7.81,2.69-11.99,4.13-3.54-.05-7.33.84-11.12,2.09-4.54,1.5-9.19,2.65-13.79,3.98-.69.2-1.42.41-1.99.82-1.39,1-2.75.82-4.4.17-.25-1.27-.51-2.55-.76-3.82-2.92.3-5.72.56-8.5.89-.45.05-.87.45-1.3.69-.55,1.14-.5,2.85-2.74,2.64-.26-.28-.65-.7-.99-1.06-3.79,2.21-7.97,1.85-11.99,1.91-2.18.96-4.28,1.88-6.82,2.99h-7.12c-1.91,3.27-4.9,4.11-8.76,3.57-.1-2.1-.2-4.17-.29-6.08-2.16-1.5-3.25.88-5.01,1.04-2.26-.99-2.18-3.29-2.66-5.39-2.67-.83-5.31-1.65-8.74-2.71-.08.02-1.01.3-1.57.47-3.51-1.61-6.74-3.08-9.59-4.38-1.56.36-2.62.61-3.59.84-3.21-4.08-8.2-3.15-12.13-4.9-2.46-1.1-5.18-1.64-7.61-2.82-2.62-1.27-5.38-1.66-8.16-2.12-2.42-.4-4.61-1.88-7.19-1.53-4.02-2.21-8.7-1.11-12.94-2.74-3.83-1.47-8.15-1.63-12.23-2.5-4.31-.91-8.59-1.99-12.88-2.96-4.78-1.08-9.6-2-14.34-3.27-1.55-.41-2.85-.72-3.85.08-4.68-1.46-9-2.82-13.67-4.28-.34.12-1.03.36-1.9.67-1.43-1.81-3.25-1.93-5.23-.62-.65-.79-1.19-1.45-1.85-2.26h-5.98c-4.32-2.93-4.63-2.97-6.95-.82,1.55,2.54,4.48,3.26,6.76,4.71,2.23,1.41,4.08,3.73,7,3.66.52.66.87,1.45,1.46,1.77,2.71,1.46,5.52,2.71,8.22,4.18,1.73.94,3.47,1.96,4.93,3.25,4.77,4.21,10.57,6.83,15.79,10.33.86.58,2.06.66,3.21,1,.52.93,1.06,1.9,1.72,3.07,5.88,2.6,11.38,6.26,16.77,10.2v3.23c-2.7,1.57-3.1,1.32-3.89-2.41-1.87-.83-4.17.4-6.09-.86.07-.78.12-1.45.23-2.65-.99.75-1.59,1.2-2.47,1.87-4.75-1.86-9.66-3.79-14.57-5.73-.35-.14-.66-.36-1.01-.47-4.25-1.25-8.11-3.43-12.2-5.06-3.39-1.35-6.73-2.82-10.06-4.3-1.99-.88-3.88-2.01-5.92-2.77-1.93-.71-3.72-1.71-5.69-2.38-4.52-1.54-8.8-3.77-13.19-5.69-5.27-2.3-10.55-4.57-16.23-6.4.5.59.94,1.25,1.52,1.74,4.08,3.41,8.26,6.69,12.26,10.19,4.19,3.66,8.2,7.52,12.12,11.14v5.15c-1.01.29-2,.58-2.61.75-3.42-2.63-6.31-5.18-9.53-7.24-4.01-2.57-8.26-4.75-12.44-7.05-1.6-.88-3.31-1.59-4.92-2.47-1.93-1.05-3.79-2.22-5.7-3.29-5.66-3.19-11.34-6.37-16.83-9.45-1.22.37-2.03.61-2.82.85-.24-.16-.53-.26-.63-.45-1.6-3.1-4.62-4.2-7.53-5.53-2.46-1.12-4.86-2.38-7.24-3.67-.97-.53-1.8-1.31-2.36-1.73-1.72-.64-3.13-1.08-4.46-1.68-2.01-.91-3.93-2.02-5.96-2.9-2.82-1.24-5.73-2.29-8.55-3.53-3.29-1.44-6.56-2.92-9.76-4.52-1.74-.87-3.46-1.01-4.91.15-2.03,1.63-4.34,2.59-7.06,3.46,1.92,2.76,3.66,5.27,5.55,7.98-2.06,1.27-3.38,3.37-6.14,3.69-1.47.17-2.83,1.34-4.95,2.42,2.47.52,4.46.57,4.95,3.24-3.57.27-7.07.54-10.97.83-.13.16-.57.7-1.11,1.36-1.07.15-2.24.32-3.72.54,1.94,1.55,3.6,2.87,5.25,4.2.06,1.16.11,2.14.15,2.89-3.42,4.82-6.61,9.52-10.05,14.03-1.25,1.63-3.14,2.76-4.7,4.17-2.23,2.01-4.24,4.18-5.71,6.88-.8,1.48-2.33,2.57-3.51,3.85-.99,1.07-1.8,2.19-2.5,3.56-1.47,2.89-3.64,5.43-5.69,8.37-.96-1.68-1.72-3.01-2.6-4.56-1.43,2.22-2.78,4.32-4.03,6.28v4.97c1.28-.7,2.31-1.08,3.13-1.74,3.08-2.48,5.88-5.39,9.21-7.47,2.56-1.6,4.86-3.45,7.01-5.44,1.61-1.49,2.92-3.31,4.89-4.42,1.17-.66,1.15-.7,3.72-.04.41,1.99.84,4.12,1.25,6.11-5.52,4.97-8.96,11.13-13.01,16.82-3.79,5.33-7.38,10.8-11.18,16.12-1.19,1.67-2.02,3.69-4.01,4.75-.47.25-.65,1.03-1,1.53-2.79,4.02-5.72,7.95-8.34,12.08-1.95,3.07-4.26,5.99-5.83,9.85,2-.27,3.35-.48,4.38-1.69.38-.45,1-.71,1.51-1.04,3.36-2.18,6.39-4.85,10.02-6.63.81-.4,1.47-1.11,2.4-1.84.83,1.43,1.53,2.66,2.33,4.05v6.14c-5.85,7.05-11.44,14.22-16.7,21.93-.29-.04-.86-.12-1.32-.19-1.12,1.23-2.28,2.34-3.25,3.61-1.78,2.33-1.56,3.97.66,6.09,1.74,1.67,1.96,2.4,1.8,6.48-1.5,1.24-3.2,2.65-5.03,4.16.04,2.23-.88,4.11-2.04,6.11-1.93,3.29-4.29,6.26-6.35,9.44-.45.7-1.14,1.24-1.54,1.67-2.06,5.27-4.06,10.39-5.92,15.17-1.43,1.06-2.51,1.87-3.57,2.66-.1,1.15-.18,2.13-.25,2.94-1.38,1.89-2.68,3.67-3.77,5.16,1.39,6.36,1.25,7.95-.82,9.83-2.89-2.59-1.78-6.16-2.19-9.23-.93-.78-1.83-.66-2.34.15-.74,1.19-1.6,2.08-2.8,2.84-.73.46-1.19,1.52-1.51,2.41-.62,1.71-1.67,3.04-3.02,4.18-1.42,1.2-2.85,2.36-4.27,3.56-3.3,2.8-6.61,5.6-9.88,8.44-1.22,1.06-2.32,2.26-3.92,3.82.71.17,1.32.31,1.87.44-1,2.74-.89,5.54-4.54,6.04-.44,1.32-.93,2.81-1.44,4.34-1.69.82-3.45,1.68-5.33,2.6-.39-.26-.98-.67-1.79-1.22-.31.46-.49.91-.81,1.19-1.85,1.63-3.73,3.24-5.62,4.82-3.89,3.24-7.8,6.46-11.7,9.69-3.33,2.76-6.68,5.51-9.99,8.3-3.44,2.91-6.9,5.81-10.22,8.86-1.35,1.24-2.96,2.01-4.31,3.34-3.24,3.19-7.15,5.68-10.57,8.69-3.14,2.77-6.11,5.72-9.58,8.12-.95.66-1.45,1.97-2.24,3.11-.35,2.9.58,6.12-1.24,8.93q-2.09.07-4.51-1.29c-.69.31-1.46.66-2.15.98-.49,1.47-.94,2.85-1.53,4.65-.98-.89-1.66-1.51-2.3-2.08-.72,1.6-1.52,3.37-2.45,5.43,1.57,1.21,3.22,2.49,5,3.87,1.49-.28,3.04-.57,4.49-.85,1.53,1.07,1.59,2.58,1.76,3.98,2.59,2.2,5.13,4.37,7.71,6.57-.13,2.03-.76,3.78-2.94,4.65-.77,1.88-1.57,3.79-2.46,5.96-1.29-.46-2.52-.9-3.83-1.36-3.08,2.91-5.01,6.13-3.16,10.54.14.33.05.74.09,1.11.12,1.14.26,2.28.41,3.63,5.83.41,11.88,2.12,18.25-.1,1.84,4.36,4.15,8.87,8.48,12,4.98-2.4,9.96-4.79,14.94-7.19.65-.32,1.27-.73,1.95-.96.87-.29,1.78-.45,2.68-.66.34.93.55,1.49.83,2.24,4.67-.89,8.23-4.18,12.63-5.85,1.42,2.83-.61,4.72-1.27,6.36-4.47,2.93-8.47,5.59-12.52,8.19-1.12.72-2.33,1.62-3.58,1.77-3.2.39-5.2,2.38-7.17,4.55-.25.28-.56.5-.82.72.04,1.72,1.09,3.45-.63,5.22-3.82-2.16-7.64-4.49-11.6-6.51-4.92-2.5-9.98-4.72-14.95-7.13-1.58-.77-3.02-.33-5.27-.41,4.28,5.58,8.27,10.21,12.65,14.65,1.02.21,2.09.43,3.47.72.45-.53,1.05-1.23,1.62-1.9,2.14-.13,2.56,1.78,3.49,2.67,1.59-.18,3.03-.34,4.61-.52.51,1.04.92,1.88,1.24,2.52h12.54c-.25.9-.22,1.76-.64,2.16-1.14,1.12-2.34,2.31-3.74,3-6.06,2.99-12.2,5.82-18.66,8.88.1.43.3,1.32.56,2.43-.61.37-1.22.74-1.58.95-1.67-.62-3.13-1.15-4.95-1.82-.14-1.52-.29-3.21-.45-4.97-7.22-8.49-14.47-17.03-21.62-25.45.7-1.39,1.23-2.43,1.81-3.59-1.95-.94-4.2,0-5.32-1.93.74-1.67,1.48-3.33,2.23-5.01-.57-1.09-1.07-2.06-1.68-3.22-.89.39-1.65.73-2.6,1.14-.62-.31-1.38-.68-2.15-1.06-3.1-9.02-4.22-18.45-6.69-27.83-.6.12-1.14.23-2.01.41-2.29-4.19,1.37-6.65,3.07-9.85-.53-.97-1.1-2.02-1.81-3.3,2.47-3.29,6.75-5.27,7.22-9.73,11.37-7.61,12.94-8.4,15.52-7.76-.98,1.42-1.92,2.8-3.2,4.66,1.66-.26,2.48-.71,3.22-1.63,4.94-6.18,10.27-12.02,15.8-17.69,3.89-3.99,7.43-8.32,11.07-12.54.48-.56.61-1.42.41-2.58-.79.42-1.58.84-2.43,1.3h-3.94c2.41-2.67,5.4-3.79,8.21-5.59-.03-.44-.06-1-.09-1.56-2.34-.54-3.52,1.34-5.39,2.15-.19-.73-.33-1.26-.51-1.95,2.4-1.2,4.76-2.24,6.97-3.54,1.59-.93,2.93-2.28,4.48-3.29,5.38-3.5,10.87-6.82,16.16-10.43,2.08-1.42,4.23-2.86,5.63-5.18.79-1.31,2.18-2.25,3.31-3.34,3.63-3.47,7.3-6.91,10.9-10.42,1.46-1.43,2.77-3.03,4.29-4.72-.72-1.64-2.27-2.62-3.77-3.46-3.81-9.38-9.6-17.56-13.9-26.52-.29-.61-1.06-1-1.66-1.55-2.66.76-5.28,1.38-7.44,3.57-2.51.49-5.26,1.04-8.03,1.55-.73.13-1.48.22-2.22.18-3.87-.2-7.6.51-11.34,1.46-2.25.57-4.61.73-7.64,1.19-.09.06-.8.55-1.61,1.1h-7.39c.02.12.05.24.07.36-2.2.63-4.37,1.43-6.61,1.84-4.23.77-8.41,2.1-12.81,1.58-.47-.06-1,.05-1.46.2-4.94,1.6-10.12,1.86-15.16,2.87-3.72.74-7.57.57-11.24,1.94-1.99.74-4.41.27-6.6,1.71.64,4.35,1.24,8.8,1.98,13.23.27,1.63,1.22,2.95,2.62,3.92.97.67,1.86,1.47,2.61,2.08-.22,2.63-2.05,3.01-3.54,3.63-.8,1.84.78,1.74,1.86,2.29.41,6.52,1.22,13.09,2.59,19.02.77,2.84,1.38,5.17,2.05,7.49.88,3.06,1.81,6.11,2.98,9.1v3.22c.6,1.64,1.06,3.18,1.72,4.64,1.02,2.27.63,4.31-.6,6.36-.61,1.02-1.04,2.15-1.33,2.75-2.03,3.34-3.79,6.24-5.63,9.27-1.11-.95-2.1-1.8-3.2-2.74.76-1.61,1.49-3.17,1.92-4.1,1.33-4.59-.91-7.77-2.23-11.18-.48-1.25-.74-2.58-1.16-3.85-.23-.68-.61-1.31-.9-1.97-.71-1.57-1.48-3.12-2.12-4.71-1.87-4.63-3.34-9.42-5.71-13.87-1.42-2.67-2.29-5.63-3.34-8.28-3.33-1.02-5.71,1.49-8.77,1.3-3.34,5.35-6.7,10.73-10.38,16.61-.03-.08.16.47.47,1.43-1.11,1.95-2.34,4.22-3.66,6.43-3.47,5.8-5.8,12.21-9.58,17.86-.9,1.34-.9,3.27-1.41,5.31-2.08.16-4.51.35-6.93.55-2.46.2-4.93.42-8,.68-.71.48-1.92,1.29-3.36,2.26v7.01c0,5.12.05,10.25-.04,15.37-.03,1.42-.5,2.83-.78,4.36-1.08-.28-1.77-.46-2.85-.74-.29,1.49-.75,2.9-.8,4.31-.12,3.24,0,6.5-.05,9.74-.01.93-.25,1.86-.39,2.87-4.42-1.49-6.36-3.92-6.33-7.84.04-5.21-.52-10.34-1.46-15.45-.22-1.21-.41-2.65.03-3.71,1.43-3.45.07-6.53-.83-9.7-.3-1.06-.69-2.09-1.08-3.25-.81-.14-1.65-.27-2.57-.43-.79-.89-1.6-1.79-2.52-2.81,2.36-1.57,4.76-2.71,6.56-4.46,3.13-3.03,7.01-4.9,10.46-7.44,3.33-2.46,6.6-5.01,10.03-7.35,2.19-1.5,3.99-3.73,6.38-5.48-.64-1.05-1.13-1.86-1.54-2.54-.47-.04-.71-.13-.92-.08-3.45.86-6.89,1.75-10.33,2.62-3.2.81-6.5,1.36-9.56,2.53-1.87.72-3.36,2.41-5.29,3.86,1.04.91,1.74,1.52,2.63,2.3-.19.71-.39,1.48-.62,2.34-1.53.13-2.87.25-4.34.38-1.56,2.12-3.15,4.31-4.75,6.48-.51.69-.97,1.47-1.6,2.02-1.86,1.61-2.83,3.71-3.7,5.93-.66,1.7-1.53,3.31-2.37,5.11-2.55-1.13-3.57-2.86-3.58-5.11-.05-8-.05-15.99.01-23.99,0-1.07.43-2.15.69-3.39-1.13-.69-2.32-1.42-3.5-2.14.5-2.53,2.36-3.68,3.7-5.06,2.49-.74,4.54.04,6.41,1.19,2.86-.6,5.62-1.19,9.13-1.93.04-.03.74-.52,1.45-1.02h4.52c-.03-.14-.06-.28-.09-.42,2.21-.6,4.39-1.32,6.63-1.79,2.76-.58,5.37-1.58,8.3-1.72,2.48-.11,4.94-1.36,7.34-2.3,1.5-.59,2.98-1.04,4.55-1.42,1.84-.44,3.45-1.8,5.33-2.85v-4.03c-.81-.39-1.67-.8-2.58-1.25-.43-2.74-.23-5.07,1.5-7.45,1.79-2.46,2.91-5.41,4.33-8.14.23-.43.48-.85.74-1.26,2.9-4.44,5.8-8.88,8.72-13.32.68-1.03,1.4-2.02,2.11-3.04-.83-.74-1.71-1.53-2.68-2.4.6-1.42,1.47-2.13,2.89-2.67,8.52-3.22,16.95-6.68,25.48-9.87,5.04-1.89,10.26-3.32,15.33-5.14,5.55-1.99,11.35-3.06,16.94-4.95,3.8-1.29,7.92-1.62,11.87-2.5,1.43-.32,2.76-1.02,4.17-1.43,2.6-.74,5.11-1.92,7.93-1.58.22.03.49-.09.7-.21,2.89-1.65,6.32-1.85,8.98-3.3,3.31-.32,6.34-.61,9.6-.93,4.43-2.24,9.18-4.66,13.91-7.05-.21-2.36-1.66-3.27-3.13-4.22-4.64-3-9.3-5.98-13.87-9.07-5-3.39-9.92-6.92-14.89-10.35-1.22-.84-2.57-1.48-3.78-2.33-2.45-1.71-3.55-4.58-5.57-6.67-.77-.8-1.4-1.74-2.18-2.53-1.56-1.6-3.17-3.14-5.21-5.16-.56-1.57-1.88-3.46-3.56-5.14-3.84-3.82-7.38-8.01-11.57-11.4-5.4-4.37-9.59-10.1-15.65-13.7-.98-.58-1.77-1.76-2.26-2.84-.92-2.02-2.22-3.49-4.32-4.26-.56-.21-1.1-.55-1.56-.93-1.81-1.51-3.62-3.01-5.35-4.6-4.24-3.91-8.38-7.93-12.65-11.8-3.39-3.07-6.94-5.97-10.39-8.98-.65-.57-1.18-1.27-1.95-2.11.41-.96.84-1.94,1.27-2.95h5.04c1.68,1.18,3.94,1.72,6.37,1.41,3.55-.45,6.77,1.16,10.17,1.66.36.05.64.68.97,1.05.97-1.68,2.53-1.59,3.87-.89,2.27,1.19,4.8.12,7.05,1.17,2.34,1.09,4.87.65,7.34.78,1.21.06,2.4.48,3.61.62,2.75.31,5.34,1.25,8.26,1.02,2.32-.19,4.75,1.03,7.34,1.68,4.16-1.25,7.78,1.18,12.18,2.57.51-.2,1.53-.59,2.89-1.11.49.22,1.25.56,2.02.9.01-.14.03-.27.04-.41,2.89.27,5.77.54,8.76.82,1.07.64,2.27,1.96,3.4,1.9,3.53-.18,6.94.57,10.41.79.26.02.56-.44,1.02-.83-1.34-2.05-3.44-.77-5.56-1.48-.24-.17-.94-.65-1.74-1.21-1.08.5-2.19,1.02-3.49,1.62-2.3-1.68-4.79-3.03-7.71-2.34-1.35-1.34-2.53-2.13-4.56-1.71-1.84.38-3.4-1.05-4.9-2.37-.29.26-.68.61-1.36,1.22-1.56-.79-3.23-1.64-4.99-2.53-.04.05-.35.42-.66.8-6.02-1.86-11.98-3.71-17.94-5.55.03-.11.06-.23.08-.34h-3.94c-.59-.41-1.29-.9-2.16-1.49h-3.15c-.77-.55-1.47-1.05-2.19-1.56h-3.1c-.67-.47-1.38-.96-2.16-1.49h-2.21c-2.79-1.07-4.94-1.9-7.09-2.73-.06.12-.12.25-.18.37-.9-.86-1.8-1.72-2.67-2.55-.89.14-1.84.59-2.52.33-3.77-1.43-7.75-2.07-11.52-3.67-3.85-1.64-7.32-4.55-11.82-4.53-3.34-1.91-7.65-1.83-10.19-4.95-4.8-.6-8.67-2.85-13.3-5.48-1.3-.14-3.49-.2-5.12-2.12-.49-.58-1.56-.66-2.37-.96-5.34-1.99-10.64-4.01-15.5-7.13-2.53-1.63-5.67-2.27-8.39-3.65-4.46-2.25-8.72-4.9-13.24-7.03-2.37-1.12-4.59-2.52-7.01-3.59-3.22-1.43-5.89-4.07-9.05-5.7-3.38-1.75-5.96-4.75-9.69-5.89-.56-.17-1.04-.62-1.54-.96-1.31-.91-2.61-1.84-3.93-2.75-1.87-1.29-3.88-2.31-5.64-3.83-2.6-2.25-5.53-4.13-8.38-6.07-4.1-2.79-7.86-5.99-11.53-9.3-.82-.74-1.76-1.35-2.64-2.02-3.23-2.45-6.39-4.97-9.04-8.1-1.1-1.3-2.75-2.11-3.95-3.35-3.2-3.3-6.04-7-9.49-9.99-3.86-3.36-6.4-7.83-10.19-11.21-.77-.68-.99-1.94-1.65-2.78-1.71-2.16-3.51-4.25-5.31-6.34-2.78-3.24-5.36-6.6-7.12-10.52-.15-.33-.36-.65-.59-.93-1.92-2.28-3.16-4.95-4.47-7.59-.54-1.09-1.4-2.02-2.19-3.14-.45-3.39-2.54-6.13-4.64-9.2v-2.91c-1.7-2.06-3.06-3.9-3.44-6.63-.33-2.32-2.53-4.31-1.82-6.6-1.9-3.96-3.19-7.63-3.08-11.84-.63-.75-1.34-1.6-1.95-2.34v-6.5c-.49-1.32-1.17-3.15-1.88-5.09.92-1.42,1.91-2.65,3.5-3.26,3.37-1.28,6.17-3.54,9.26-5.32,1.8-1.04,3.69-1.92,5.55-2.88.9,2.16,1.69,4.07,2.78,6.68v3.69c.1-.02.2-.04.3-.06.41,1.37.79,2.76,1.25,4.11.83,2.44,1.29,5.16,2.73,7.19.95,1.34.26,2.72,1.19,3.92.95,1.23,1.38,2.86,1.98,4.35.56,1.37,1.43,2.76,1.45,4.15.02,1.5,1.17,2.05,1.67,3.1,1.91,3.99,4.03,7.87,6,11.83.48.97.7,2.08.92,2.76,1.28,1.66,2.68,2.91,3.38,4.47,2.54,5.65,6.38,10.53,9.27,15.97.77,1.45,2.4,2.45,3.63,3.65.13.79-.38,1.79.75,2.25.75,2.38,2.51,3.96,4.27,5.55-.49-2.43-2.36-3.86-3.9-5.52-.06-.07-.24-.02-.36-.03-.15-.78.38-1.79-.75-2.24-1.03-2.09-1.84-4.32-3.14-6.22-1.84-2.71-3.4-5.65-4.73-8.54-1.81-3.93-3.67-7.9-5.01-12.08-1.24-3.89-3.17-7.57-5.1-12.05v-3.86c-.43-.6-.92-1.3-1.61-2.29.2-1.19.44-2.63.71-4.22-.87-1.45-1.86-3.08-2.83-4.69v-19.47c2.22-1.93,1.81-4.69,2.42-7.1.38-.31.75-.62,1.22-1.01v-3.1c1.44-3.83,4.64-5.87,5.66-9.46.4-1.39,2.33-2.34,3.7-3.62.93.83,1.72,1.53,2.49,2.21.9,2.06-.47,3.54-1.45,5.17.62,1,1.2,1.92,1.61,2.57-.7,2.54-1.32,4.78-1.94,7.02,1.48,4.46,2.84,8.93,1.56,13.82.59,1.22,1.25,2.56,1.96,4.02v5.26c.41.37.86.76,1.43,1.27v3.61c.64,1.19,1.24,2.01,1.54,2.92,1.31,3.96,2.5,7.95,3.82,11.91.25.74.87,1.36,1.34,2.07-.13.32-.26.66-.4,1.01,2.34,2.89,3.89,6.16,4.42,9.34,1.85,2.81,3.73,5.09,4.97,7.67,2.87,6.01,6.75,11.39,10.14,17.06,2.08,3.48,4.88,6.45,6.68,10.1,2.62,1.12,2.79,4.15,4.62,5.92,1.78,1.72,3.58,3.5,4.97,5.53,3.89,5.67,8.85,10.34,13.73,15.08,3.28,3.18,6.85,6.06,10.25,9.04.79-.39,1.33-.65,2.02-.99v-4.3c-.51-.42-1.23-1.03-1.91-1.6-.07-.49-.16-.85-.17-1.22-.08-2.84-.01-5.65-.67-8.49-.61-2.64-.69-5.43-.81-8.16-.13-2.86-.03-5.74-.03-9.22.29-.15.94-.5,1.5-.8,0-2.36.06-4.48-.02-6.6-.09-2.29.68-4.12,2.48-5.5,1.91-.75,3.13.11,4.26,1.86.05,4.18-.31,8.68,1.78,12.78-1.84,3.46-.73,6.35,1.39,9.22-.17,1.37-.36,2.82-.61,4.79.74,1.53,1.73,3.56,2.72,5.58v-14.24c.9-1.35,1.78-2.69,2.67-4.02-1.42-.85-1.55-2.31-1.05-3.51,1.3-3.11.98-6.8,3.45-9.47.06-2.82,2.08-4.91,2.83-7.39.76-2.53,1.87-4.83,3.01-7.14,1.39-2.8,2.46-5.81,4.91-8,.5-.44.64-1.29,1.05-2.19,1.35-1.13,3.05-1.44,5.08-.57.82,2.09.7,4.73,3.36,6.16,1.34-1.04,2.78-2.17,4.48-3.49h2.66c1.24.94,2.52,1.91,3.83,2.89,1,2.7,2.02,5.45,3.25,8.8.42,2.46.89,5.61,1.51,8.74.91,4.65,1.19,9.35.88,14.05-.09,1.35-.34,2.94-1.79,3.88,2.56,2.22.23,4.4.04,7.06.32,1.73.68,3.86-.31,6.04-.55,1.21-.4,2.75-1,3.91-.8,1.53-.59,3.29-1.73,4.83-.86,1.16-.54,3.2-.82,5.4-2.65,3.52-2.44,9.14-6.2,12.8-1.06,5-4.34,9.02-6.12,13.7,1.8.06,2.77-1.33,3.43-2.54,2.03-3.74,4.52-7.1,7.37-10.24.64-.71.94-1.74,1.36-2.64,1.22-2.61,1.62-5.67,4.19-7.53,1.29-3.51,2.57-7.03,3.9-10.53.41-1.08,1.19-2.05,1.42-3.15.23-1.09.27-2.09,1.04-3.08.99-1.27,1.09-2.9.48-4.46,1.07-1.67,1.83-3.18,1.76-5.36-.07-2.39.58-5.04,2.28-7.23-.15-.13-.49-.43-1.02-.89.37-1.29.77-2.68.95-3.32-.18-5.4-.42-10.07.22-15.5-.6-1.32-2.4-3.42-.18-5.27-1.73-4.74-3.38-9.29-5.01-13.76.87-1.29,1.55-2.3,2.21-3.3.78-.13,1.5-.25,2.47-.42-.14-.63-.25-1.17-.41-1.89.53-.38,1.11-.8,1.61-1.16-.82-1.03-1.65-2.06-2.52-3.15v-2.92c.6-.56,1.39-1.29,2.04-1.91,2.18.1,2.76,2,4.42,2.89h2.38c1.24-.96,2.58-1.98,3.89-2.99,2.66.77,4.16,2.87,4.99,4.8,1.64,3.81,3.75,7.38,5.29,11.23.62,1.56,1.5,3.02,2.13,4.57,1.28,3.17,2.49,6.37,3.66,9.58.19.51.03,1.14.03,2.1,1.4,1.76,3.82,3.66,1.91,6.73.99,2.26,2.68,4.09,1.93,6.93-.33,1.24.87,2.88,1.74,4.25v10.02c-.47.4-.83.71-1.19,1.02,2.76,2.14,2.28,4.63.94,6.93v10.29c-.7,1.16-1.62,2.68-2.56,4.25.44.47.91.98,1.53,1.64-2.05,2.42-2.1,5.46-3,8.22-1.31,4.01-2.79,7.96-4.28,12.18-.43.19-1.08.47-1.52.66-.53,1.93-1.01,3.67-1.55,5.63,2.74-.75,2.56-3.78,4.3-5.32,1.6-1.42,2.12-4.04,3.24-6.38.2-.07.65-.23,1.2-.42,1.9-1.87,1.33-5.33,4.09-7.01,1.96-8.3,5.74-16.3,6.37-25.21.55-1.12,1.15-2.35,1.71-3.5-.11-1.53-.29-2.98-.29-4.43-.03-7.37.03-14.74-.05-22.1-.02-1.57-.44-3.15-.73-4.71-.73-3.85-1.48-7.69-2.24-11.53-.33-1.67-.63-3.37-2.34-4.59.22-.99.45-2.06.61-2.77-3.59-6.18-4.96-13.31-10.01-18.35-.22-1.12-.42-2.19-.7-3.61,1.83-1.68,3.83-3.51,5.84-5.35-1.51-3.05-4.26-4.58-6.41-6.69-1.49-1.46-2.94-2.98-4.66-4.73-.11.02-.74.34-1.23.2-1.75-.51-3.07.14-4.3,1.26-2.87,2.62-6.04,2.39-9.17,1.1-.73-1.36-1.35-2.53-1.94-3.63,1.5-3.63,2.98-7.22,4.39-10.63,1.44-1.24,2.75-2.37,4.21-3.63,4.88-.55,9.22,1.11,13.77,3.93.14-.02,1.02-.43,1.5-.15,4.89,2.84,10.16,5,14.7,8.46,2.11,1.61,4.34,3.09,6.47,4.68,4.31,3.21,8.37,6.7,12.07,10.61,1.35,1.43,3.13,2.44,4.51,3.85,5.45,5.56,10.69,11.31,15.49,17.45,1.68,2.14,3.51,4.17,5.08,6.39,1.48,2.09,2.59,4.44,4.08,6.51,1.26,1.75,2.84,3.28,4.27,4.91v-2.48c-1.67-2.69-3.11-4.95-4.49-7.25-1.99-3.32-3.79-6.78-5.94-9.99-2.2-3.27-4.74-6.31-7.11-9.45-.89-1.18-1.78-2.37-2.62-3.6-2.35-3.45-5.03-6.62-7.63-9.87-3.64-4.54-7.57-8.76-11.61-12.92-1.72-1.77-3.25-3.74-4.89-5.59-.49-.56-1-1.22-1.64-1.51-3-1.37-5.03-3.97-7.27-6.12-4.81-4.61-10.09-8.3-16.2-10.87-.57-.24-1.1-.57-1.65-.86-.97-1.27-1.95-2.55-3.07-4-.05-.77-.11-1.75-.19-2.97-4.76-4.69-9.62-9.48-14.51-14.23-.27-.26-.92-.12-1.36-.16-.43,1.28-.72,2.48-1.24,3.56-.47.99-1.2,1.87-1.76,2.73-3.51,1.48-7,.76-10.53.21-.29-.35-.61-.72-.79-.94-1.9-.43-3.64-.83-5.87-1.33-.61.63-1.65,1.7-2.83,2.93,1.5,2.2.08,4.14-.59,6.19,1.05,2.83,0,5.22-1.61,7.56v6.62c-1.17,2.12-2.29,4.14-3.4,6.18-1.54,2.83-3.75,4.91-6.75,6.13-.46.18-.91.53-1.36.54-3.33.05-6.66.03-10.77.03-.51.27-.19,1.5-.2,2.58-.02,6.25-.15,12.5.04,18.74.12,4.17-.63,8.1-1.91,11.7.17,1.59.32,2.92.44,4.07-1.88,3.15-2.03,3.78-1.67,6.07-.79,1.72-1.4,3.33-2.24,4.81-2.32,4.07-5.03,7.95-9.59,9.66-4.61,1.73-9.13.69-12.75-2.51-5.27-4.65-10.39-9.52-12.98-16.35-2.86-3.4-3.83-7.8-6.03-11.56-.64-1.1-.56-2.62-.86-4.21-.22-.21-.66-.62-1.2-1.14v-3.09c-.59-.87-1.08-1.58-1.53-2.23,0-3.21.54-6.44-2.36-8.86.15-2.96.29-5.91.43-8.86.17-.02.35-.04.52-.05-.57-.94-1.25-1.83-1.66-2.83-.36-.88-.83-2.09-.5-2.79.83-1.71.39-3.44.58-5.14.43-3.91.93-7.8,1.36-11.71.12-1.11.13-2.24.44-3.27.4-1.13.79-2.26,1.19-3.39.28-.79.56-1.58.87-2.36.36-.91.95-1.78,1.08-2.72.44-3.1,2.12-5.56,3.68-8.14.92-1.52,1.5-3.25,2.33-5.11-2.16.09-3.59,1.6-5.34,2.26-3.82,1.45-7.67,2.74-11.84,2.18-.94-.13-1.87-.64-2.72-1.12-1.29-.73-2.5-1.58-3.98-2.52-.53-.78-1.23-1.8-2.03-2.98v-3.84c-.57-.82-1.06-1.53-1.5-2.17v-3.8c1.04-1.93,2.38-3.5,1.69-6.11-.38-1.45.95-3.34,1.58-5.24-1.29-.82-2.97-.12-3.78.62-2.76,2.51-6.3,3.16-9.55,4.35-1.84.68-4.22.46-6.19-.02-1.23-.3-2.15-1.84-2.96-2.59-.92-3.35.41-5.7,2.03-7.96,4.34-6.03,9.71-11.07,15.01-16.25,6.21-6.08,12.92-11.47,20.01-16.36,4.73-3.27,9.5-6.63,15.06-8.57,2.15-.75,4.04-2.32,6.21-2.95,3.18-.92,6.51-1.78,9.85-.97,2.28.55,4.08,2.1,5.58,3.93.46.56.91,1.11,1.13,1.38.65,1.89,1.19,3.48,1.74,5.07.78,2.81-.02,5.32-2.03,7.4,1.12,4.47-.56,8.22-2.4,11.97-.63,1.27-.94,2.7-1.64,4.76,1.75-1.18,2.94-1.78,3.89-2.65,4.3-3.96,8.55-7.98,12.78-12.01,3.6-3.42,7.53-6.39,11.77-8.97.94-.57,1.72-1.41,2.64-2.05,3.81-2.64,7.59-5.32,11.5-7.8,1.15-.73,2.54-1.41,3.77-1.8,3.58-1.12,6.4-3.39,9.44-5.34.29-.19.51-.69.78-.7,3.24-.18,5.98-1.65,8.85-2.99,1.41-.66,2.58-1.97,4.59-1.82,1.37.1,2.78-1.48,4.29-1.86,5.19-1.31,10.29-2.93,15.55-3.95.84-.16,1.65-.42,2.48-.66,1.91-.54,3.81-.91,5.83-.9,2.2.01,4.4-.45,6.54-.69.65-.89,1.23-1.69,1.96-2.7-1.48-1.66-2.99-3.37-4.49-5.06-1.74.42-3.48.85-4.93,1.2-1.07-.73-1.78-1.22-2.45-1.68-2.29.04-4.18.84-5.94,2.37-1.4-.15-2.85-.31-5.08-.55-4.33,1.64-9.47,3.28-15.04.88-1.9,1.7-2.06,1.74-9.11,1.88-1.78.96-3.5,1.88-5.44,2.93-.62,0-1.49.06-2.36-.02-.84-.07-1.68-.28-3.03-.51-2.03.37-4.27,1.96-7.02,2.03-1.12.03-2.21.91-3.52,1.49h-5.54c-4.29,1.38-8.03,2.59-11.74,3.78-.75-.26-1.44-.5-2.13-.74-2.33,1.8-5.46,1.66-7.77,3.5-.59.47-1.86.07-2.9.07-1.8,1.03-3.75,2.18-6.14,2.41-.96.09-1.94.3-2.85.63-3.48,1.24-6.93,2.55-10.39,3.85-2.57.96-5.27,1.64-7.5,3.4-.34.27-.93.22-1.39.36-2.24.67-4.44,1.36-6.35,2.87-1.22.96-2.81,1.45-4.23,2.16-1.98.98-3.97,1.94-5.92,2.96-1.51.79-3.14,1.36-4.62,2.09-3.29,1.62-6.25,3.93-9.33,5.97-.61.41-1.16.94-1.82,1.24-3.54,1.64-6.23,4.43-9.27,6.75-2.71,2.07-5.46,4.06-7.97,6.41-3.02,2.84-6.39,5.31-8.74,8.83-.68,1.02-1.76,1.76-2.61,2.68-1.4,1.53-3.32,2.66-3.68,4.99-.06.41-.6.78-.95,1.12-2.55,2.44-4.01,5.55-5.6,8.64-1.16,2.27-2.58,4.38-3.32,6.88-.25.84-1.32,1.43-2.33,2.44-.53-4.17-.47-7.99-.15-11.73.33-3.99.73-7.97.61-11.97-.06-2.08.56-3.76,1.69-5.54,2.23-3.51,4.19-7.19,7.59-9.77.58-2.61,2.67-4.09,4.4-5.82.87-.87,1.88-1.58,3-2.5.8-2.82,7.19-8.76,9.95-10.03.38-.77.55-1.85,1.16-2.23,4.58-2.88,7.17-8.45,12.39-9.54,1.72-1.71,2.95-3.22,4.46-4.35,1.49-1.12,3.27-1.85,5.5-3.06q1.71-2.3,3.95-2.53c4.15-2.72,7.94-5.2,12.08-7.91.42-.03,1.29-.08,2.2-.13,3.29-2.3,6.7-4.36,10.71-5.43,2.09-.56,3.93-2,5.97-2.83,3.38-1.38,6.62-3.09,10.17-4.09,2.45-.69,4.75-1.9,7.17-2.72.83-.28,1.81-.12,2.48-.15,4.38-1.41,8.58-2.77,12.77-4.12,3.61.96,6.72-2.03,10.42-1.26,1.16.24,2.63-1.06,3.6-1.5h9.94c.02.16.04.31.06.47,1.26-.64,2.52-1.29,4.46-2.28h31.88c.21.39.56,1.04.8,1.5,2.32-.11,4.28.27,6.95-.5-1.08-.53-1.52-.9-1.99-.95-4.51-.55-8.7-2.12-12.93-3.69-1.69-.62-3.5-1.2-5.3-1.62-1-.24-2.09-.09-3.32-.13-.37-.47-.82-1.04-1.38-1.75-.88-.32-1.95-.71-3.27-1.19-.07.07-.48.45-1.05.97-1.55-.83-3.11-1.65-4.8-2.55-.41.21-1.05.75-1.77.87-.79.14-1.67.23-2.32-.72-.35-.5-1.26-.94-1.88-.89-3.76.31-7.02-1.66-10.59-2.22-1.37-.22-2.57-.31-3.75.21-1.56-.92-2.99-1.76-4.51-2.66-2.39,1.97-5.13,1.11-7.92.14-.56-.65-1.19-1.38-1.97-2.28-.8.52-1.46.95-2.56,1.66-1.69.09-3.95.43-6.02-.7-1.84-1.01-4.28,1.35-5.73-1.22-.67.17-1.35.59-1.79.42-2.9-1.14-5.9-.55-8.86-.66-2.22-.08-4.47.15-6.59-.77-2.12-.92-4.37-.69-6.59-.76-1.1-.04-2.18-.3-3.28-.43-.73-.09-1.49-.31-2.19-.19-5.19.88-10.71.87-16.58-.04-.85-.13-1.79-.2-2.61,0-5.54,1.43-11.16.31-16.73.67-4.12-1.5-7.92.3-11.86,1-3.02.54-6.15.48-9.29.68-.55-1.08-.98-1.95-1.46-2.91,1.33-2,2.09-4.12,2.56-6.46,1.29-6.37,4.33-12.14,6.73-18.12.82-2.05,2.05-3.85,2.26-6.23.15-1.72,1.49-3.31,2.17-5.01.68-1.7,1.2-3.47,1.8-5.27,2.54-3.81,5.15-7.7,7.95-11.9-.22-.91-.52-2.1-.78-3.19.78-4.38,3.69-7.65,6.03-11,2.56-3.67,4.4-7.62,6.44-11.51.43-.82.29-1.94.4-2.92.35-2.93,1.58-5.64,2.26-8.5.69-2.9,2.61-5.49,3.78-8.3,1.74-4.19,3.35-8.45,4.92-12.71.5-1.36-.7-2.57-.26-4.27.7-2.7,1.17-5.5,1.76-8.26.65-3.03-.06-6.15-.9-9.15-.26-.94-.47-1.93-.47-2.9.02-6.44-1.03-12.74-2.18-19.05-.77-4.23-1.24-8.51-1.89-13.03-1.97-3.32-4.53-6.73-6.11-10.55-1.79-4.32-4.58-8.12-6.24-12.41-2.03-5.25-5.42-9.7-7.87-14.68-2.34-4.77-5.06-9.36-7.8-13.92-5.2-8.65-10.58-17.2-15.8-25.84-1.77-2.94-2.95-6.28-4.99-9-2.44-3.25-4.23-6.94-6.86-9.98-3.5-4.04-6.08-8.69-9.3-12.9-.45-.59-.89-1.21-1.44-1.7-3.87-3.43-6.98-7.55-10.5-11.29-3.19-3.4-6.34-6.83-9.52-10.25-3.4-3.65-6.76-7.34-10.22-10.94-2.91-3.03-5.95-5.96-8.91-8.94-.77-.77-1.8-1.48-.92-3.11.58.11,1.38.04,1.86.4,3.63,2.77,7.22,5.61,10.79,8.45,3.48,2.77,6.94,5.55,10.38,8.37,2.3,1.89,4.5,3.89,6.79,5.78,3.88,3.2,7.82,6.33,11.7,9.52,4.49,3.69,8.95,7.41,13.43,11.13,4.47,3.71,8.69,7.81,13.48,11.04,4.89,3.29,9.19,7.21,13.6,11.01,2.64,2.27,4.53,5.42,6.67,8.24,1.12,1.47,2.06,3.07,3.06,4.63,1.41,2.18,2.76,4.34,5.09,5.79,2.47,1.53,3.34,4.47,5.17,6.6,1.92,2.23,3.45,4.8,5.2,7.18,1.68,2.28,3.52,4.46,5.13,6.79.82,1.18,1.72,2.51.81,4.16-1.89.83-3.59-.1-3.91-1.65-.94-4.46-4.56-5.83-8.26-8,.15.85.08,1.46.35,1.77,1.04,1.18,2.19,2.26,2.77,3.63.52,2.77,1.06,5.54,1.55,8.32.4,2.3,1.09,4.61,1.04,6.9-.11,4.91,1.66,9.44,2.41,14.17.19,1.21.61,2.4.63,3.6.07,3.04,1.19,5.74,2.24,8.52,2.09,5.52,4.01,11.1,6.07,16.63.32.87.97,1.62,1.93,3.19.14-1.79.09-2.73.29-3.6,1.02-4.47.16-9.14,1.43-13.58.07-.23.04-.5.05-.75.25-4.82.55-9.64.72-14.47.05-1.43.1-2.74,1.25-3.57-.81-2.6-.87-5.21-.24-7.51.53-1.91.2-3.29-.47-4.94-.72-1.79-1.76-3.59-1.07-5.75.89-.53,1.82-1.08,2.66-1.58-2.11-5.21-4.43-10.13-6.13-15.27-3-9.08-7.38-17.59-10.49-26.64-2-5.82-4.83-11.35-7.27-17.03-.53-1.24-1.23-2.5-1.36-3.81-.21-1.96-1.25-3.47-2.09-5.11-.22-.44-.82-.77-.86-1.19-.41-3.78-2.85-6.75-4.09-10.21-1.15-3.23-3.01-6.2-4.55-9.29-1.74-3.48-3.38-7.01-5.23-10.42-3-5.51-5.81-11.14-9.83-16.03-.62-.76-1.28-1.56-1.62-2.46-1.41-3.76-4.2-6.63-6.22-9.97-2.47-4.1-5.64-7.71-7.91-11.98-1.78-3.34-4.48-6.19-6.72-9.29-2.67-3.7-5.31-7.42-7.87-11.19-.5-.74-.61-1.74-.9-2.62,1.8-.92,2.95-.45,3.92.73,3.54,4.29,7.01,8.64,10.63,12.86,3.82,4.46,7.84,8.76,11.67,13.21,3.7,4.29,7.23,8.73,10.91,13.03,3.05,3.57,6.21,7.06,9.34,10.57,1.39,1.56,2.86,3.04,4.23,4.61,3.59,4.1,7.13,8.25,10.72,12.36,1.85,2.12,3.79,4.16,5.66,6.26,2.06,2.31,3.99,4.76,6.18,6.95,3.51,3.51,5.7,7.8,7.92,12.15,2.25,4.41,4.91,8.6,7.22,12.98.85,1.61,1.59,3.15,2.94,4.49,1.07,1.06,1.46,2.78,2.19,4.19,1.85,3.59,3.71,7.17,5.58,10.75,1.05,2.02,2.13,4.02,3.76,5.85-.36-1.76-.65-3.55-1.1-5.29-1.38-5.34-2.89-10.64-4.22-15.99-1.1-4.39-1.94-8.85-3.04-13.25-1.52-6.06-3.2-12.07-4.76-18.12-.55-2.14-.86-4.33-1.4-6.47-.65-2.61-1.38-5.2-2.13-7.78-1.13-3.88-1.36-8.03-3.44-11.63-.06-.11-.16-.22-.16-.33-.21-6.74-3.53-12.73-4.65-19.27-.74-4.32-2.44-8.46-3.47-12.74-1.46-6.1-4.34-11.73-5.71-17.89-.81-3.67-2.97-7.03-4.06-10.67-1.2-4-3.37-7.54-4.82-11.42-1.88-5.04-4.38-9.85-6.75-14.7-3.79-7.73-7.98-15.29-11.43-23.17-1.42-3.24-3.85-6.05-4.33-9.72-.07-.52-.75-.96-1.13-1.45-1.8-2.32-4.22-8.1-4.5-11.09,1.13.28,2.12.52,2.72.67,1.18,1.74,2.17,3.12,3.07,4.56,3.3,5.33,6.54,10.69,9.85,16.01,2.67,4.3,5.39,8.56,8.11,12.83,3.36,5.29,6.84,10.5,9.84,16.02,2.05,3.77,4.82,7.15,7.17,10.77,2.47,3.81,4.78,7.71,7.21,11.54,2.77,4.38,5.64,8.7,8.39,13.09,1.77,2.82,3.3,5.79,5.11,8.58,2.21,3.42,4.31,6.98,7.01,9.97,1.69,1.87,2.17,4.13,3.1,6.15,2.03,4.44,3.09,9.32,4.94,13.87,1.75,4.32,2.59,9.05,5.61,12.83.44.56.75,1.33.84,2.04.64,4.85,3.31,8.99,4.68,13.57.63,2.11,1.44,4.17,2.16,6.26.92,2.67,1.87,5.33,2.74,8.01.45,1.39.47,2.72-1.48,3.42-.56-.53-1.44-1.01-1.72-1.72-.75-1.9-1.17-3.92-1.86-5.84-.45-1.25-1.18-2.4-1.74-3.61-1.01-2.19-2.93-3.49-4.75-5.49-.5,2.56,1.04,3.71,2.03,5.38,0,3.63.09,7.5-.04,11.36-.06,1.96-.2,4.01-.84,5.82-.71,1.98-.62,3.92-.59,5.88.07,5.46-.85,10.81-1.34,16.21-.43,4.77-.61,9.64.31,14.5.41,2.16.81,4.45.49,6.83-.27,1.99.49,4.12.83,6.42.41-.06,1.05-.23,1.69-.23,1.6,0,2.82.6,3.58,2.13.86,1.73,2.29,2.79,4.31,3.13,1.87-2.89,1.17-6.07,1.4-9.24.64-.77,1.36-1.62,2.2-2.61,0-3.86.06-7.86-.01-11.85-.1-5.59.48-11.07,2.05-16.46.27-.93.16-1.97.2-2.96.26-6.07.23-12.18.89-18.2.34-3.09.54-6.15.63-9.24.23-7.57.42-15.15.8-22.71.1-2.01.83-3.99.52-6.06-.03-.23.19-.5.14-.71-1.13-5.03.54-10.03.08-15.07-.17-1.91-.35-3.69-1.52-5.38.19-.52.64-1.13.55-1.65-.63-3.86-1.26-7.73-2.08-11.56-1.33-6.23-2.71-12.45-4.24-18.64-1.18-4.76-3-9.39-3.85-14.2-.74-4.2-2.22-8.05-3.79-11.82v-4.14c1.82-1.02,2.67.28,3.38,1.36,1.16,1.75,2.49,3.53,3.06,5.49,1.04,3.59,3.1,6.67,4.45,10.1,1.33,3.39,3.12,6.6,4.67,9.91,1.31,2.79,2.56,5.59,3.83,8.39.1.22.09.5.19.71,1.79,3.62,3.62,7.22,5.38,10.86,1.56,3.23,3,6.51,4.55,9.75,1.32,2.75,2.77,5.44,4.07,8.2.73,1.54,1.29,3.16,1.64,4.91.85.91,1.7,1.82,2.63,2.8.6,5.26,4.54,9.15,6.31,14.74.21,4.51.3,9.72.77,14.9.29,3.28,1.14,6.51,1.74,9.77.15.84.36,1.68.43,2.53.28,3.32.49,6.65.8,9.97.15,1.58.68,3.15.65,4.72-.03,1.44-.45,2.92-.95,4.29-.2.55-1.06.85-1.75,1.36-.88-.73-1.62-1.35-2.17-1.8-.73-2.12-.23-3.68,1.31-5.09-1.66-2.5-2.46-5.55-5.74-6.56-1.21,1.84.51,2.92,1.23,4.44-3.5,6.44-7.16,12.89-10.54,19.48-3.33,6.48-7.56,12.55-10.04,20.49,2.27-1.42,3.78-2.36,5.45-3.41.67-.04,1.53-.08,2.18-.12,3.1-1.65,6.01-3.2,8.92-4.75-.05-.1-.09-.21-.14-.31.73-.09,1.47-.18,2.67-.33.79-1.01,1.8-2.29,2.62-3.34,2.22-.44,3.98-.79,5.73-1.14,1.22,2.57,2.27,4.78,3.58,7.54-.22.62-.6,1.77-1.03,2.9-3.52,9.28-7.05,18.56-10.56,27.85-1.77,4.68-3.62,9.34-4.84,14.21-.09.34-.01.72-.01,1.85.69-1.2,1.09-1.79,1.39-2.42,2.4-5.07,5.12-9.98,7.28-15.17,1.07-2.58,2.53-4.99,3.77-7.5.42-.86.67-1.79,1.01-2.69.9-2.39,2.19-4.7,2.64-7.17.89-4.89,3.49-9.08,5.13-13.65,1.19-3.32,2.17-6.55,1.86-10.6,1.26-1.15,2.76-2.44,4.17-3.82.68-.66,1.75-1.51,1.71-2.21-.12-2.03.93-3.55,1.74-5.16,1.24-2.47,1.25-5.28,2.3-7.75,1.64-3.84,2.34-7.96,3.79-11.81,2.45-6.53,4.34-13.23,6.47-19.84,1.95-6.05,3.73-12.2,4.66-18.54.23-1.57.75-3.09,1.14-4.64,1.06-4.19,1.46-8.46,1.86-12.75.3-3.17.97-6.3,1.36-9.46.36-2.94.68-5.89.82-8.84.14-2.87.06-5.75.03-8.62-.05-3.72.78-7.32,1.29-10.97.44-3.19.17-6.48.21-9.72.02-1.23-.21-2.56,1.69-3.29.39.55,1.07,1.13,1.24,1.83.23.95.07,1.98.08,2.98.1,7.36,1.11,14.68.76,22.06,1.23,3.76.21,7.71.88,11.45.43,2.41-.44,4.7.32,7.16.7,2.29.27,4.94.29,7.43.03,2.5-.32,5.05.09,7.48.77,4.57.11,9.23.81,13.72.77,4.98.35,9.92.61,14.87.1,1.84.24,3.66.52,5.5.35,2.33-.45,4.84-.79,7.27-.07.48-.44.94-.43,1.4.14,5.14-2.17,9.82-2.79,14.81-.12.98-.12,1.98-.27,2.95-.19,1.2-.48,2.39-.75,3.58-.58,2.62-1.16,5.24-1.78,8.02-.43.06-.89.13-1.52.23-.73-2.13-1.45-4.19-2.15-6.23q-1.24,1.81-1.34,4.77c-4.6,4.87-9.18,9.73-14,14.36-3.51,3.37-6.46,7.19-8.89,11.37-.83,1.43-.97,3.25-1.27,4.92-1.9,5.67-3.81,11.34-5.96,17.74-.49-.94-.7-1.34-.97-1.85-.39,1.86-.71,3.53-1.1,5.19-.17.71-.31,1.5-.73,2.07-2.65,3.58-4.17,7.79-6.51,11.56-2.16,3.48-3.91,7.23-5.73,10.64.52,1.59.9,2.75,1.32,4.03.96-.22,1.88-.43,2.84-.66.22.43.48.73.52,1.06.18,1.27-.13,2.31-.94,3.44-3.85,5.43-7.58,10.95-11.26,16.5-.63.95-1.66,1.95-.87,3.8,4.17-4.76,7.75-9.69,11.4-14.57,3.68-4.92,7.36-9.85,11.18-14.97.96.8,1.69,1.4,2.29,1.89v6.06c-.1-.24,0,.28.28.64,2.01,2.57,1.75,5.49.55,8.07-.9,1.91-1.79,3.94-3.22,5.64-1.26,1.51-2.45,3.15-3.3,4.91-1.79,3.72-4.46,6.81-6.77,10.16-1.09,1.58-1.93,3.32-3.09,5.34.83,0,1.63.25,2.05-.05,1-.72,2.05-1.55,2.68-2.58,3.37-5.5,7.9-10.11,11.63-15.32.76-1.06,1.29-2.29,2.04-3.67.64.46,1.47.74,1.52,1.12.41,3.35,1.27,6.75.04,10.08-.67,1.82-1.66,3.52-2.73,5.75-.34.22-1.15.77-2.03,1.35v2.57c.5.09.99.34,1.17.19.85-.66,1.65-1.4,2.39-2.17,1.03-1.07,1.94-2.27,3.02-3.28.38-.35,1.11-.32,1.97-.54.14,1.41.26,2.61.41,4.13,2.29,2.25,2.99,5.57,4.04,8.75.46,1.37,1.15,2.67,1.93,4.46-.41.87-.74,2.26-1.57,3.23-2.89,3.36-5.99,6.54-8.93,9.86-2.43,2.75-4.72,5.62-7.11,8.4-3.31,3.85-6.65,7.67-10.06,11.6-.05.8-.1,1.63-.18,2.9,1.17-.71,2.12-1.05,2.76-1.7,2.42-2.49,4.8-5.03,7.08-7.65,1.04-1.19,2.35-2.07,3.44-3.22,1.39-1.48,2.96-2.86,4.3-4.45.11-.13.46-.05.79-.07v7.77c-1.14.9-3.32,1.71-2.35,4.56h5.28c2.77-1.49,5.84-3.15,9.02-4.88.28.25.64.56,1.25,1.11-5.49,4.74-10.87,9.4-16.36,14.14v1.52c.26.11.41.22.48.19,8.28-4.1,15.19-10.34,23.19-15.11,2.53,4.18,4.43,8.22,5.48,12.78-2.92,3.54-6.26,6.48-10.42,8.47-1.67.79-3.26,1.78-4.79,2.82-2.12,1.44-4.05,3.16-6.24,4.48-3.09,1.86-5.58,4.36-8.1,6.85-.76.76-1.28,1.77-2.21,3.09,2.13-.21,3.31-1.5,4.78-1.87,1.44-.37,2.23-2.66,4.5-1.32-1.09,1.41-2.27,2.65-3.11,4.08-.8,1.37-1.25,2.94-1.61,3.85-3.39,3.04-6.33,5.68-9.54,8.56-.02.38-.06,1.11-.09,1.81.27.11.46.28.64.26,3.42-.37,6.61-1.4,9.58-3.19.82-.49,1.88-.57,2.8-.9.97-.35,1.91-.8,3.62-1.52h2.46c4.85-4.33,9.42-8.43,14.01-12.49,1.48-1.31,3.07-2.49,4.58-3.77,1-.85,1.94-1.78,3.33-3.06.48-.15,1.52-.47,2.56-.8,2.44,2.31,3.3,5.53,4.88,8.3,1.57,2.75,2.6,5.83,4.29,8.5,1.78,2.8,3.29,5.69,4.73,8.67,1.38,2.85,3.17,5.51,4.4,8.41,1.25,2.95,4.15,5.15,4.08,8.85-.73.62-1.47,1.24-2.56,2.15-1.16-.7-2.53-1.71-4.04-2.39-3.4-1.54-6.86-2.94-10.31-4.34-2.83-1.14-5.69-2.21-8.9-3.45-1.36,1.09-2.73-.49-4.23-1.06-2.51,0-5.11.4-6.6-2.39-1.11.23-2.06.42-3.38.69-.39-.27-1.09-.74-1.95-1.32h-3.1c-.51-.54-.93-.98-1.39-1.47h-9.11c-1.42-1.17-2.86-2.11-4.96-.98-.97.52-2.44.09-3.96.09-1.68-.88-3.61-1.9-5.67-2.99-.81.5-1.63,1.01-2.6,1.61-8.47,0-17.09,0-25.71,0-.5,0-1.08.16-1.49-.03-3.37-1.62-6.21-.24-9,1.71-.83-.47-1.56-.88-2.34-1.32-3,1.71-6.24,2.4-9.99,1.51-2.39,1.08-5.29,1.71-7.82,3.4-.53-.41-1-.79-1.51-1.19-1.7.9-3.41,1.8-5.22,2.76-.69-.24-1.38-.47-1.85-.64-1.92.58-3.78.9-5.4,1.69-2.87,1.39-5.66,2.85-8.79,3.66-1.7.44-3.18,1.73-4.78,2.61-.6.33-1.23.69-1.88.83-2.16.47-3.97,1.55-5.8,2.74-2.66,1.73-5.5,3.2-8.28,4.74-1.44.8-2.79,1.6-3.95,2.86-.95,1.04-2.34,1.82-3.69,2.34-1.12.43-1.88.98-2.46,2.2,2.12.37,3.31-1.08,4.54-1.85,2.26-.38,4.34-.62,6.37-1.11,2.01-.49,4.15-.91,5.9-1.93,1.7-1,4.17-.2,5.07-2.43h2.84c.3.39.59.78.82,1.07,5.7-3.26,11.73-5.14,18.58-4.92.54-.38,1.25-.87,2.05-1.43h4.59c.59-.42,1.29-.91,1.98-1.39,4.78-.7,9.57-.77,14.33-2.09,4.31-1.19,9.08-.75,13.65-1,.34-.02.69.26.62.23,1.61-.4,2.86-.98,4.13-.99,7.87-.09,15.74-.05,23.61-.05.5,0,1.06-.11,1.49.06,5.13,2.13,10.53,1.24,15.97,1.47.62.42,1.33.91,1.96,1.34,3.15.37,6.21.73,9.67,1.14.36.25,1.06.75,1.74,1.24h3.87c.68.48,1.38.98,2.09,1.48,2.55-.1,4.72.5,7.04,1.78,2.57,1.42,5.59,2.15,8.32,3.45,3.66,1.73,7.55,3.03,11.03,5.06,3.51,2.05,7.51,3.37,10.37,6.48.73.79,1.88,1.02,2.77,1.55,1.31.79,2.28,1.59,3.19,2.81.67.9,1.97,1.33,2.43,1.62,1.83,1.54,3.38,2.49,4.45,3.83,1.19,1.49,2.91,2.4,3.76,4.38.74,1.71,2.94,2.72,4.04,4.35,2.78,4.11,6.79,7.45,7.97,12.57.08.35.25.71.48.98,2.77,3.33,3.64,7.45,4.76,11.47.26.92.86,1.74,1.32,2.63,0,2.06.45,4.3-.12,6.26-.61,2.08,1.11,3.84.14,5.74-.64,1.31-1.37,2.58-1.91,3.93-1.48,3.69-4.46,5.66-7.94,7.09-2.35.97-4.59.95-7.15.34-4.64-1.09-8.36-4.11-12.84-5.4-1.72-2.3-5.23-2.28-6.57-5.07-5.09-2.88-8.47-7.65-12.73-11.45-.69-.62-1.64-.94-2.48-1.4,1.2,2.6,2,5.4,3.75,7.72,2.8,3.72,4.96,7.85,8.05,11.43,2.16,2.5,3.93,5.37,6.39,7.67,2.54,2.38,5.15,4.55,8.17,6.39,2.67,1.63,5.2,3.46,8.12,4.62,1.58.63,3.23,1.07,5.09,1.67.12.14.42.52.71.86.31.04.56.12.8.09,4.35-.58,7.77,1.49,10.67,4.26,3.5,3.34,7.08,6.75,9.81,10.69,3.14,4.52,5.67,9.47,7.58,14.77,1.28,3.57,1.28,7,1.29,10.58-3.54,5.77-4.21,6.23-8.73,6.15-2.34-1.05-4.45-1.97-6.52-2.94-.77-.36-1.54-.76-2.2-1.29-3.75-3-7.63-5.86-10.88-9.45-2.91-3.22-5.99-6.31-8.79-9.63-1.63-1.94-2.86-4.21-4.78-6.18.26,1.07.34,2.24.81,3.2.84,1.72,1.92,3.32,2.89,4.97.25.42.55.82.71,1.27.31.92.34,2,.85,2.79,1.1,1.71,2.36,3.33,3.68,4.89,1.92,2.27,3.88,4.51,5.92,6.67,2.48,2.63,5.46,4.5,8.75,6.03,2.07.96,3.8,2.63,5.69,3.97.5.36.98.78,1.54,1.02,2.82,1.18,5.07,3.09,7.1,5.32.58.63,1.31,1.12,2.19,1.85,1.72,3.67,2.85,7.78,2.49,12.38-.46.68-1,1.48-1.59,2.35,1.15,2.3,1,4.49.24,6.86-.67,2.11-.69,4.44-.91,6.1,0,2.24.23,3.99-.05,5.65-.59,3.5-1.29,6.99-2.26,10.39-.37,1.29-.47,2.34.28,3.43-.93,1.91-2.81,3.41-1.98,5.76-2.42,5.27-3.79,11.48-11.4,12.4-1.67-1.31-3.67-2.76-5.53-4.36-1.31-1.13-1.95-2.71-2.64-4.31-1.13-2.62-3.33-4.67-4.34-7.4-1.49-4.04-2.99-8.07-4.56-12.08-1.87-4.77-3.59-9.6-5.33-14.42-.53-1.47-1.02-2.95-1.9-4.35v-3.37c-.69-.78-1.34-1.52-2.02-2.29-.39-3.04-.78-6.09-1.22-9.52-.4-.62-1.02-1.59-1.87-2.91.09,6.13,3.31,11.55,2.42,17.75q2.07,4.13,1.55,6.3c2.15,8.24,3.6,16.41,7.45,23.77-1.4.94-2.46,1.65-3.79,2.55-1.46-.86-3.06-1.75-4.61-2.72-1.43-.89-3.24-1.15-4.14-2.97-.35-.69-1.72-.8-2.49-1.37-3.23-2.41-6.43-4.86-9.6-7.35-7.2-5.63-13.02-12.68-19.67-18.88-4.44-4.14-7.85-9.17-11.96-13.59-1.56-1.68-3.15-3.33-4.72-4.99.25,2.5.72,5.02,2.69,6.7,1.43,1.21.96,3.07,2.3,4.45,1.62,1.66,1.91,4.54,3.36,6.45,1.66,2.17,2.78,4.72,4.58,6.67.8.87,1.19,1.73,1.67,2.67.28.55.46,1.24.9,1.61,2.42,1.98,3.95,4.69,5.52,7.23,2.57,4.19,6.2,7.33,9.46,10.86,4.19,4.54,8.15,9.28,12.4,13.76,1.54,1.62,3.02,3.35,5.3,4.34,1.69.73,2.89,2.56,4.33,3.88,2.9,2.65,5.78,5.33,8.76,7.91.7.61,1.8.75,2.6,1.26,2.97,1.9,5.96,3.77,8.81,5.85,2.88,2.1,5.97,3.85,9.08,5.55,3.98,2.17,8.11,4.06,12.16,6.11.65.33,1.21.87,1.93.94,4.61,1.52,9.22,3.04,14.46,4.77.31.27,1.16,1,2.15,1.85,2.8-1.97,5.14-.25,7.75,1.08,2.74-1.32,5.36.02,7.95,1.05,1.44.57,2.76,1,4.54.34-.64-.46-1.08-.89-1.6-1.14-5.11-2.4-9.7-5.64-14.4-8.74-3.16-2.08-5.89-4.74-8.87-6.38-.94-1.81-1.73-3.33-2.78-5.34v-2.88c.89-1.18,1.85-2.46,2.92-3.88,1.32-.78,2.81-1.65,4.55-2.67.68-.05,1.66-.12,2.73-.2.9-1,1.79-1.99,2.75-3.04-2.36-3.64-4.06-7.24-3.81-11.45-3.17-4.65-2.39-10.02-2.48-15.2.78-1.32,1.53-2.59,2.39-4.04-2.14-2.72.1-5.06.97-8.02,1.19-.32,2.69-.72,4.07-1.08,2.67,2.39,4.81,4.66,6.47,7.56,2.85,4.99,6.34,9.62,9.34,14.54,1.77,2.91,3.1,6.09,4.63,9.15.82,1.64,1.67,3.27,2.49,4.91,1.47,2.95,2.89,5.93,4.42,8.85.52,1,.62,1.87-.02,2.67.4,2.19,2.88,3.74,1.6,6.11.66,1.71,1.59,3.28,1.83,4.94.83,5.89,3.1,11.49,3.53,17.44.43,2.21,2.16,4.09,1.47,6.64-.09.31.75.79.96,1.28.82,1.88,1.52,3.81,2.33,5.69,2.3,5.31,5.67,10,8.8,14.82.9,1.39,2.17,2.59,3.46,3.66,1.97,1.64,3.72,3.57,4.78,5.77,1.02,2.11,3.29,3.55,3.32,6.15,4.13,4.18,5.17,9.98,7.62,15.02,2.79,5.74,6.14,11.23,8.25,17.35.82,2.37,1.87,4.76,2.83,7.14.55,1.36,1.34,2.62,2.16,4.18-.09.42-.25,1.12-.44,2.01.81.4,1.65.82,2.63,1.3.05,1.04.1,2.15.16,3.5.6.52,1.33,1.15,2.17,1.88-.11.61-.24,1.32-.37,2.04.45.33,1.31.63,1.38,1.06.34,2.15,1.88,3.65,2.66,5.53.52,1.25,1.19,2.12,2.33,2.71-.05-.62.08-1.34-.19-1.83-3.49-6.13-6.31-12.56-8.86-19.12-.84-2.15-1.79-4.26-2.75-6.36-.89-1.93-2.45-3.75-2.67-5.74-.36-3.14-3.06-5.38-2.82-8.63.03-.44-.26-.96-.53-1.36-2.37-3.4-2.41-7.71-4.38-11.29-.55-.99-.3-2.42-.77-3.49-.96-1.97-2.12-3.86-2.84-5.91-1.81-5.15-4.82-9.67-7.31-14.47-4.06-3.2-5.79-8.23-9.27-11.88-1.72-1.8-1.71-4.26-2.45-6.43-.35-1-.32-1.94-1.25-2.89-1.03-1.04-1.43-2.83-1.79-4.37-.61-2.62-1.37-5.3-1.28-7.94.04-1.26-.84-1.53-.97-2.36-.35-2.18-.69-4.36-.99-6.32.73-1.11,1.26-1.93,1.92-2.94-.77-.72-1.45-1.35-2.17-2.03-.72-2.5-2.23-5.07.21-7.64-1.64-2.32-2.6-4.85-2.87-7.78-.18-1.99-1.27-3.89-2.2-6.56.07-.03.62-.29,1.19-.56-.13-.2-.23-.36-.33-.52-.59-.91-1.52-1.77-1.71-2.76-.81-4.28-3.29-7.92-4.47-12.07-.65-2.29-2.67-4.21-3.27-6.5-.68-2.6-2.25-4.62-3.31-6.95-1.04-2.29-1.84-4.66-3.78-6.55-1.19-1.16-2.32-2.66-2.59-4.65-.22-1.58-1.45-2.85-2.72-3.36-1.31-2.15-2.45-4.02-3.71-6.08,1.41-5.05,3.61-9.93,6.89-14.23,2.16-2.83,4.7-5.38,8.92-5.81,1.03,1.19,2.2,2.54,3.82,4.42-.14,3.66-.3,8.08-.48,12.88,2.75-1.33,4.18-4.3,7.34-5.23h3.16c.19.59.38,1.16.61,1.84.61.22,1.29.46,2.13.75,1,2.22,2.03,4.52,3.07,6.82.18-.04.37-.09.55-.13,0,2.99,0,5.97,0,8.96,0,.37.08.8-.07,1.11-.98,2.09-1.38,4.26-.77,6.77,1.42-.35,3.08-.66,4.68-1.16,1.95-.61,3.61-.33,5.13,1.08.79.74,1.73,1.32,2.78,2.11,1.11,2.36,1.78,4.94-.5,7.36.27.78.5,1.47.74,2.17-.75,1.64-1.5,3.3-2.19,4.83.47,1.62,1.82,1.98,2.93,2.26,4.64,1.15,8.38,3.48,10.86,7.64q-.15,2.21,1.73,5.03c.19,4.17.36,8.14.56,12.1,0,.17.35.32.58.5,1.09-1.04,1.87-2.25,3.49-2.9,1.54-.62,2.49-2.59,3.91-3.7,3.34-2.61,6.89-4.79,11.59-4.19.18.92.34,1.74.46,2.35,1.5,1.91,2.87,3.66,4.29,5.47-.1,4.06.72,8.2-1.39,12.13.22.63.46,1.32.76,2.19-.47.75-.98,1.57-1.56,2.49,0,4.27-.07,8.64.03,13.01.04,2.01-.55,3.6-2.06,4.75.18,1.13.5,2.21.51,3.29.04,7.25.03,14.49,0,21.74,0,.84-.22,1.68-.36,2.74q2.11,3.12,1.3,6.72h2.39c1.05-1.79-.11-2.9-1.15-4.23,1.7-1.92,1.9-4.17,1.65-6.71-.32-3.22-.08-6.49-.08-9.78.75-1.54,1.5-3.09,2.3-4.74-.26-.78-.53-1.59-.91-2.7.83-1.42,1.76-3,2.85-4.87-.78-1.31-.68-2.79.23-4.28,1.01-1.66,1.04-3.7,2.17-5.41,1.94-2.94,3.56-6.1,5.32-9.16.06-.11.22-.18.24-.28,1.05-4.52,5.2-6.75,7.59-10.46,1.47-.28,2.97-.28,4.45-1.26,3.21-2.11,6.79-3.66,10.35-5.51,1.73-3.18,4.78-5.65,6.87-9.19-.86-.39-1.48-.68-2.29-1.05-.39-3.06-2.58-5.24-4.55-7.41-.13-.87-.24-1.59-.34-2.32-.2.18-.39.35-.59.53-.77-.77-1.54-1.53-2.31-2.3.18-.23.37-.46.55-.69-.72-.09-1.45-.17-2.65-.32-1.65-1.86-3.49-4.03-5.43-6.1-.74-.8-1.78-1.31-2.56-2.08-3.3-3.24-6.65-6.43-9.78-9.83-1.29-1.4-2.75-2.92-2.65-4.88-.87-1.08-1.74-1.94-2.34-2.96-2.05-3.5-4.26-6.94-5.91-10.62-1.18-2.64-2.48-5.24-3.59-7.92-1.62-3.92-3-7.93-4.53-11.88-.39-1.01-.94-1.95-1.44-2.99.34-.48.7-.97,1.06-1.47-2.1-3.95-5.3-7.46-4.86-12.62-.96-1.36-2.37-2.84-.99-4.79-.89-2.42-2.72-4.42-1.72-7.42.38-1.14-.98-2.86-1.8-4.97v-3.08c-.48-.68-.98-1.38-1.56-2.2.2-.66.42-1.35.68-2.21-.03-1.82-1.82-3.37-.9-5.8.62-1.64-.45-3.85-.38-5.79.04-1.07.07-2.1-.04-3.18-.23-2.33-.12-4.66,1.7-6.51-2.72-2.89.8-4.46,1.32-7.03-.73-.62-1.33-1.72-.53-3.04,1.96-3.22,2.33-6.99,3.71-10.4,1.09-2.69,2.37-5.31,3.55-7.96.75-1.69,1.49-3.39,2.24-5.08.3-.68.48-1.51.99-1.98,1.96-1.82,3.29-4,4.03-6.55,2.73-1.95,3.16-5.84,6.42-7.45,1.12-.55,1.78-2.01,2.68-3.03,1.67-1.9,3.36-3.78,5.02-5.65.77.27,1.35.67,1.91.63,4.18-.28,7.96,1.43,11.91,2.28,4.2.91,8.56.85,12.68,2.24.71.24,1.64-.19,2.6-.33.24-1.36.45-2.54.7-3.97,1.57-.07,3.16-.15,4.84-.22,1.1-.57,2.28-1.18,3.63-1.87.14-.38.36-.94.62-1.64h6.62c.5.34,1.3.89,2.2,1.51.81-.44,1.55-.85,2.54-1.39.64.55,1.45,1.25,2.38,2.05.58-.55,1.08-1.03,1.74-1.65.83.33,1.72.69,2.67,1.07.47,1.93.24,3.72-.65,5.49.41.8.8,1.56,1.13,2.19,2.07,1.02,4.17.01,5.53-2.68,2.47,0,5.08.05,7.68-.02,1.71-.04,3.4-.22,5.12-.51,3.15-.53,6.36.44,9.22,1.89.93.47,1.37,1.92,2.23,3.23.9-.45,1.95-.96,3.21-1.59.44.6.91,1.24,1.33,1.81-.94,1.7-1.76,3.18-2.61,4.72,1.35,1.13,2.46,2.06,3.59,3.01.52-.37,1.03-.72,1.53-1.08.52.35,1.02.69,1.53,1.03.35-.54.68-1.06.95-1.48h7.71c.64-.86,1.62-2.16,2.35-3.14,1.54-.28,2.5-.45,3.55-.64.92-1.74,2.24-2.91,4.39-2.75.37.03.84.07,1.1-.11,2.67-1.93,5.73-1.34,8.68-1.36,4.75-.05,9.49.02,14.24-.03,1.33-.01,2.66-.25,4.24-.41.18.39.47,1.02.76,1.65,5.81.33,11.61.65,17.51.99.87-.5,1.81-1.04,2.96-1.71.81.84,1.55,1.61,2.19,2.27,13.35,1.64,26.68.83,40,.9,2.56.01,5.04.83,7.64.42,1.16-.18,2.45.45,3.61.26,1.17-.2,2.24-.96,3.47-1.52.75.53,1.45,1.02,2.15,1.51,3.13.71,5.58-.48,7.87-3.5.49,1.07.79,1.74,1.12,2.47,1.57-.78,2.73-1.35,4.11-2.03.55,1.11,1.01,2.04,1.52,3.06h23.11c1.58-.81,3.07-1.57,4.78-2.45.32.99.51,1.56.7,2.15.2,0,.48.11.6.01,2.05-1.55,4.2-.92,6.4-.16.86-.55,1.68-1.07,3.01-1.92,7.19-.15,14.89-.13,22.57-.55,4.03-.22,8.1-.33,12.08-1.31,1.18-.29,2.48-.04,3.9-.04,1.59-1.68,3.48-2.2,5.33-.83,1.21-.29,2.16-.7,3.12-.71,6.45-.09,12.67-1.58,18.84-3.22,3.2-.85,6.33-.63,9.54-.16,2.57.37,5.2.35,7.95.5,1.57.53,3.31,1.12,5.42,1.84.85,1.54,2.97,2.94,1.96,5.92-1.54,1.38-1.73,4.96-5.31,4.07-2.79,2.88-5.44,5.54-9.7,5.3-1.71,1.63-3.45,3.26-5.97,3.04-1.37,2.52-4.05,2.96-5.95,4.47-.57.46-1.4.6-1.95,1.07-2.52,2.2-5.49,2.96-8.73,3.51-2.34.4-4.5,1.85-6.8,2.85-.19.98-.34,1.81-.54,2.89-.84.77-1.83,1.66-2.73,2.49-1.38-.73-2.47-1.31-3.52-1.86-1.46,1.14-2.62,2.05-3.9,3.05-.05,1.01-.11,2.12-.17,3.31-2.27,1.78-4.24,4.21-7.91,3.62-.05,1.96-1.18,2.94-2.8,3.56-1.13.43-2.26.96-3.24,1.65-3.02,2.14-6.49,3.55-9.48,5.59-4.52,3.08-9.54,5.23-14.03,8.3-1.02.69-2.2,1.14-3.3,1.72-.96.5-1.92,1.01-2.86,1.54-.64.36-1.21.95-1.89,1.14-2.87.81-5.04,2.84-7.57,4.24-2.78,1.55-5.34,3.83-8.31,4.63-3.37.91-5.59,3.4-8.63,4.69-3.68,1.56-7.06,3.82-10.79,5.9.35,1.14.68,2.25,1.14,3.75,1.08-1.18,1.95-2.13,2.66-2.9,2.8-.37,5.33-.71,7.74-1.03q.65-2.88,2.83-4.6c.83.27,1.75.56,2.62.85,3.11-1.55,6.27-2.4,9.7-2.32,2.38.06,4.32-1.03,6.41-2.28,3.33-1.98,6.09-5.01,10.27-5.62,1.85-.27,3.36-.46,4.81.89.3.28.92.21,1.52.32.39-1.23.74-2.35,1.15-3.63.74,0,1.45-.22,1.89.04,1.01.6,1.88.07,2.32-.49,2.41-3.05,5.76-3.42,8.65-3.49,2.25-.81,3.91-1.75,5.66-1.98,2.78-.35,5.03-1.64,7.38-2.96,1.78-1,3.7-2,6.33-1.63-1.26,1.55-1.7,3.32-3.61,4.07-.75.3-1.27,1.17-1.89,1.79-2.21,2.2-4.21,4.69-6.69,6.54-2.44,1.82-3.92,4.41-6.15,6.36-2.06,1.81-3.95,3.61-6.98,3.75-1.4.06-2.82.88-4.14,1.52-2.12,1.02-4.46,1.45-6.57,2.28-2.34.92-5.11.82-7.07,2.68-4.47.84-8.45,3.24-12.99,3.96-2.31.36-4.45,1.73-6.74,2.43-1.81.55-3.72.79-5.83,1.21-3.1,2.49-7.73,1.73-10.86,3.85-2.04-.39-3.59-.69-4.92-.94-2.34,1.56-4.34,2.89-6.94,3.28-1.48.22-2.89,1.07-4.24,2.07-2.13,1.58-4.72,2.56-7.15,3.73-3.21,1.55-6.43,3.07-9.66,4.56-6.04,2.79-12.13,5.45-18.1,8.37-2.54,1.24-5.07,2.44-7.68,3.52-1.11.46-2.02,1.39-3.08,2.14-2.88.1-6.96,1.77-8.62,3.44-7.3,2.45-13.95,5.27-19.66,9.93.4.31.96.72,1.6,1.21-1.94,3.48-5.24,2.75-8.34,2.88-1.76,1.64-3.57,3.33-5.48,5.1-.08,1.07.1,2.46-.33,3.62-1.06,2.83-1.69,5.68-1.44,8.47-1.96,3.79-5.53,5.01-8.91,6.27-2.15.8-3.72,1.72-4.17,4.13-.14.77-.82,1.44-1.51,2.58-.28-1.29-.45-2.07-.69-3.16-2.19.66-4.42.4-6.55,1.72-1.37.85-3.61.7-4.52,2.14-1.33,2.1-3.66,2.31-5.37,3.61-.49.37-1.31.3-2.24.48-.51.74-1.14,1.65-1.59,2.29-3.43,2.32-6.62,4.47-10,6.76,3.44.47,6.7.91,10.18,1.39-.55,1.31-.99,2.35-1.46,3.47.89.39,1.55.68,2.32,1.01-.1,2.58.53,4.87,3.35,6.25-.92.88-1.53,1.94-2.32,2.1-1.17.24-1.51,1.07-2.21,1.72-2.46,2.27-4.22,4.86-5.85,7.85-2.87,5.28-7.41,8.89-13.3,11.08-4.96,1.85-9.87,3.74-14.98,5.12-.59.16-1.2.68-1.72.6-3.59-.58-5.85,2.39-8.89,3.24-2.92,3.18-6.87,5.05-10.25,8.14,4.94,3.43,10.87,4.49,15.74,7.14,1.62-1.3,3.02-2.43,4.32-3.49h2.46c.1-.46.21-.91.54-2.37.78.78,1.06,1.07,1.85,1.85-1.46.33-1.91.44-2.37.54v1.61c.92.48,1.83.96,3.59,1.87-2.89.44-4.96.14-7.29.36,1.86,2.6,4.82,2.1,6.97,3.32,2.1,1.19,4.59,1.69,6.64,2.4,1.6-.27,2.92-.49,4.09-.68,2.17,1.37,4.13,2.62,5.88,3.73,1.36-.3,2.42-.53,3.42-.75.92.81,1.67,1.46,2.58,2.26.69-.19,1.49-.41,2.32-.63,2.12,1.91,4.71,2.28,7.44,2.24,2.62-.04,5.25,0,7.89,0,.71.5,1.41.99,2.24,1.57.89-.74,1.73-1.44,2.75-2.3,2.57,1.37,5.35,2.3,8.2.63.94.74,2.44.53,2.47,2.4-2.88,2.85-6.78.68-10.38,1.77,1.07,1.14,2.04,2.17,3.2,3.41.64-.2,1.3-.4,2.1-.64.62.43,1.32.91,1.56,1.08,3.9.67,7.29,1.25,10.56,1.81.32.82.54,1.38.84,2.13,2.73.37,5.16,1.77,7.69,3.01,1.83.89,3.98,1.17,6.01,1.62,1.55.34,3.15.52,4.72.78,3.02.5,6.05.95,9.07,1.51,3.98.73,7.94,1.54,11.92,2.3,3.85.74,7.69,1.52,11.55,2.16,4.11.68,8.35.79,12.3,3.1,5.05-1.36,10.24-2.76,15.6-4.2.5,1.7.05,4.07,2.07,5.42,6.41-1.02,12.87-.34,19.3-.54,2.96-.09,5.92.17,8.87-.67,1.49-.42,3.19-.07,4.74-.07.37.86.65,1.5,1.03,2.37,3.27-2.1,6.63-2.06,10.15-.96.55-.4,1.14-.84,1.24-.91,3.56.07,6.66.38,9.71.12,3.87-.32,8.05.24,11.56,2.07.52.27,1.19.24,1.97.39.52-.64,1.04-1.29,1.62-2,4.93-1.81,10.17-1.89,15.83-2.43.06-.05.56-.42,1.23-.93.65.43,1.35.9,2.33,1.55,4.02.23,8.42.06,12.63.84,5.1.94,10.17.56,15.24.6,13.87.1,27.73.04,41.89.04,1.38,1.17,3.03,2.15,5.15.87.56-.34,1.47-.09,2.22-.12,7.2-.25,14.41-.95,21.58-.6,5.2.25,10.46,1.1,15.58.44,5.86-.76,11.67-.31,17.49-.59.87-.04,1.74,0,2.49,0,.97,1.19,1.83,2.24,2.98,3.66-.12,1.35-.27,3.03-.44,4.97.91-.34,1.95-.73,3.24-1.21.52.44,1.14.96,2,1.7-3.69,5.85-7.24,11.59-10.9,17.26-3.6,5.57-7.31,11.06-11.27,17.06.92-.37,1.66-.44,1.96-.84Zm-616.73,123.83c3.85,2.17,7.75,4.27,11.54,6.53,3.77,2.25,7.59,4.49,11.12,7.08,3.63,2.67,6.95,5.77,10.64,8.88-2.5,1.93-4.8-.12-7.06-.07-2.44.05-4.88-.44-7.35-.69-6.11-6.25-12.21-12.49-18.31-18.72-.8-.81-1.65-1.61-.59-3.01Zm-42.34-579.48c-.49.29-.73.5-1,.56-.13.03-.49-.29-.47-.36.1-.28.25-.66.47-.74.18-.06.5.25.99.54Zm481.44,231.83v1.9c-.23.02-.46.04-.68.07-.1-.64-.19-1.28-.29-1.91.33-.02.65-.03.98-.05Zm-4.34,2.75c.06.18-.25.5-.54,1-.29-.49-.51-.73-.57-1.01-.03-.13.29-.49.36-.47.28.1.67.25.75.48Zm-47.27,16.22c-1.48,1.14-2.4,1.86-3.05,2.36h-7.83c.51-.5.82-1.06,1.24-1.17,2.22-.57,4.47-1.09,6.73-1.49.72-.13,1.51.14,2.92.3Zm-109.57,115.83c-1.14-.68-2.44-1.1-3.76-1.68-.85.53-1.68,1.04-2.59,1.6-2.13.01-4.27.08-6.38,1.22-1.18.63-2.88.28-4.61.38.53-2.21,2.51-2.46,3.7-3.48,1.19-1.02,2.75-1.62,4.82-2.78,3.89.77,8.43,1.66,12.97,2.55,1.14,3.17,4.02,4.23,6.4,5.54,1.56.85,2.82,1.89,4.04,2.9,3.94,1.6,8.03,2.56,11.65,4.71.49.29,1.22.14,1.81.29,1.11.29,1.67,1,1.47,2.44-2.37,1.82-4.72,1.6-7.05.33-1.94-1.06-3.85-2.2-5.74-3.37-3.66-2.27-7.3-4.58-10.93-6.89-1.94-1.24-3.82-2.59-5.8-3.76Zm5.19,12.63c-1.32.62-2.32,1.1-3.65,1.72-.79-.98-1.37-1.7-2.09-2.6,2.18-1.09,3.75-.39,5.74.88Z"/><path d="m838.4,1116.51c.87,1.21,1.42,1.97,2.13,2.96.35-1.66-.1-2.49-2.13-2.96Z"/><path d="m619.01,883.57c-.37,2.11.84,2.89,2.1,3.64-.21-1.39-.6-2.67-2.1-3.64Z"/><path d="m832.48,1105.35c-.5-1-1-2-1.5-2.99-.06,1.28,0,2.5,1.5,2.99Z"/></g></svg>